<?xml version="1.0" encoding="UTF-8"?>
<svg version="1.1" xmlns="http://www.w3.org/2000/svg" width="500" height="500">
<path d="M0 0 C2.33845189 2.3815173 4.24959678 4.92450668 6.24609375 7.59765625 C10.35145588 12.79730481 14.64096796 15.57703815 20.31518555 18.74584961 C27.35223765 22.72109259 33.21916532 27.66830731 39.12109375 33.16015625 C39.88164062 33.86527344 40.6421875 34.57039063 41.42578125 35.296875 C50.46733522 44.53192526 55.96148784 57.55624937 58.12109375 70.16015625 C58.25 70.87816406 58.37890625 71.59617187 58.51171875 72.3359375 C63.10265004 104.41204956 57.7691805 142.84529874 42.12109375 171.16015625 C41.57582031 172.15015625 41.03054688 173.14015625 40.46875 174.16015625 C24.78213029 200.54742853 -3.56695243 219.39437437 -32.87890625 227.16015625 C-68.76897784 235.82052344 -110.28488308 234.02239687 -142.87890625 215.16015625 C-146.77238711 212.72258114 -150.36603143 210.11775136 -153.87890625 207.16015625 C-154.58144531 206.56976563 -155.28398437 205.979375 -156.0078125 205.37109375 C-165.10533318 197.00351113 -170.66384867 185.8332447 -175.93188477 174.84399414 C-178.34855346 169.92270173 -181.2521816 165.93792055 -184.80859375 161.75390625 C-203.91369465 137.81845909 -211.23153664 105.31593926 -208.12939453 75.24902344 C-204.25247586 42.91869579 -187.21735138 12.60367448 -161.87890625 -7.83984375 C-144.70584903 -21.27834914 -124.39440022 -30.32424016 -102.87890625 -33.83984375 C-102.10933594 -33.97003906 -101.33976562 -34.10023437 -100.546875 -34.234375 C-63.79314209 -39.34853079 -27.03730586 -24.24200508 0 0 Z M-160.87890625 -1.83984375 C-161.4315918 -1.38351563 -161.98427734 -0.9271875 -162.55371094 -0.45703125 C-185.45525876 18.68122008 -199.48610107 46.26326471 -203.62890625 75.66015625 C-203.74368952 77.15807789 -203.82171676 78.65893215 -203.87890625 80.16015625 C-203.93046875 81.36414063 -203.98203125 82.568125 -204.03515625 83.80859375 C-204.61508325 104.13972736 -200.99831793 135.23836436 -186.26220703 150.87573242 C-185.57747314 151.51152222 -185.57747314 151.51152222 -184.87890625 152.16015625 C-185.97907972 147.11105093 -187.12960121 142.07968679 -188.3515625 137.05859375 C-188.61130859 135.99125 -188.87105469 134.92390625 -189.13867188 133.82421875 C-189.67584746 131.62323654 -190.21492449 129.42271756 -190.75585938 127.22265625 C-197.74900588 98.41298537 -194.12105344 72.44779584 -179.0546875 47.08984375 C-170.70791155 34.67668977 -161.73210355 27.12093751 -148.00390625 21.41015625 C-147.029375 20.99894531 -146.05484375 20.58773437 -145.05078125 20.1640625 C-142.66242463 19.15720628 -140.27183199 18.15609284 -137.87890625 17.16015625 C-140.71149043 15.03523937 -140.71149043 15.03523937 -143.546875 12.9140625 C-146.65636823 10.47602796 -148.19552372 9.03814624 -148.87890625 5.16015625 C-123.40435385 -11.37897137 -94.48657996 -20.85485496 -63.79443359 -14.76293945 C-53.03150424 -12.20162497 -42.28822906 -7.93869182 -33.12890625 -1.71484375 C-26.29858834 2.64443765 -18.06144728 3.88503211 -10.25292969 5.62304688 C-6.77923381 6.40895092 -3.33064758 7.28327046 0.12109375 8.16015625 C-16.6663338 -13.16441388 -45.05134798 -25.84755812 -71.50390625 -29.08984375 C-104.71921061 -32.66911124 -135.28478546 -23.24532627 -160.87890625 -1.83984375 Z M-90.87890625 -2.83984375 C-93.718752 -2.76269016 -96.38276863 -2.55741776 -99.19140625 -2.21484375 C-100.33125977 -2.10849609 -100.33125977 -2.10849609 -101.49414062 -2 C-106.34350824 -1.43543418 -109.46586678 -0.59226613 -112.87890625 3.16015625 C-114.22663528 6.28149369 -114.22663528 6.28149369 -114.87890625 9.16015625 C-105.39041294 6.98330893 -97.23471964 4.37168227 -88.87890625 -0.83984375 C-89.53890625 -1.49984375 -90.19890625 -2.15984375 -90.87890625 -2.83984375 Z " fill="#B38822" transform="translate(239.87890625,74.83984375)"/>
<path d="M0 0 C2.61540855 2.18619273 5.13018297 4.44235802 7.6171875 6.7734375 C9.77154914 8.78652952 11.98505575 10.67648178 14.25 12.5625 C19.97326215 17.55734697 23.68412294 23.21034697 27 30 C27.556875 30.53625 28.11375 31.0725 28.6875 31.625 C30 33 30 33 30 37 C30.66 37 31.32 37 32 37 C34.14336161 40.4766338 34.21277626 43.21229195 34.125 47.25 C34.10695312 48.32765625 34.08890625 49.4053125 34.0703125 50.515625 C34.04710937 51.33546875 34.02390625 52.1553125 34 53 C33.01 53 32.02 53 31 53 C31 53.66 31 54.32 31 55 C29.35 55 27.7 55 26 55 C25.49339844 53.73542969 25.49339844 53.73542969 24.9765625 52.4453125 C24.53054687 51.34960938 24.08453125 50.25390625 23.625 49.125 C23.18414062 48.03445312 22.74328125 46.94390625 22.2890625 45.8203125 C21.16948662 42.93670638 21.16948662 42.93670638 19 41 C16.45809998 40.7499227 16.45809998 40.7499227 14 41 C12.26043342 42.73956658 12.62809614 45.1936622 12.4375 47.5625 C12.35371094 48.57441406 12.26992187 49.58632812 12.18359375 50.62890625 C12.12300781 51.41136719 12.06242188 52.19382812 12 53 C12.66 53 13.32 53 14 53 C15.83930619 55.06921946 16.92912154 56.78770703 17.80859375 59.421875 C19.24472374 62.52956612 20.76882583 63.62979764 23.5625 65.5625 C27.78889432 68.49054598 27.78889432 68.49054598 28.765625 70.84765625 C29.47877944 77.39679123 30.18579818 85.06283067 27 91 C25.57524728 92.23046826 24.14459441 93.45663766 22.65625 94.609375 C16.54083992 99.74401177 14.55983361 104.82733464 13.48046875 112.5859375 C12.83740623 115.81693456 11.61697785 117.05595931 9 119 C8.21625 119.825 7.4325 120.65 6.625 121.5 C-0.2 128 -0.2 128 -4 128 C-4 128.66 -4 129.32 -4 130 C-5.03125 130.556875 -6.0625 131.11375 -7.125 131.6875 C-9.74878589 133.16935478 -11.99121313 134.7579543 -14.25 136.75 C-17 139 -17 139 -20 139 C-20 139.66 -20 140.32 -20 141 C-21.65 141 -23.3 141 -25 141 C-24.67 135.72 -24.34 130.44 -24 125 C-23.34 125 -22.68 125 -22 125 C-21.505 122.03 -21.505 122.03 -21 119 C-20.34 119 -19.68 119 -19 119 C-18.5359375 117.081875 -18.5359375 117.081875 -18.0625 115.125 C-17.52394756 112.89898325 -17.0263 111.05260001 -16 109 C-15.61287543 100.63127774 -16.04966525 92.31542907 -17 84 C-17.66 84 -18.32 84 -19 84 C-19.39445312 82.91138672 -19.39445312 82.91138672 -19.796875 81.80078125 C-21.82741425 77.07384409 -24.99529728 73.14965259 -28 69 C-28.49886719 68.2575 -28.99773437 67.515 -29.51171875 66.75 C-34.62118368 59.35877401 -40.39019763 56.25830882 -49 54 C-56.79803038 51.43030684 -63.2637695 49.00303192 -69 43 C-69 42.34 -69 41.68 -69 41 C-69.66 41 -70.32 41 -71 41 C-71.3669579 34.51707705 -71.3669579 34.51707705 -69.625 32.0625 C-68 31 -68 31 -66 31 C-64.33685392 28.00633706 -63.20647937 25.43964407 -63 22 C-64.81909519 19.38402911 -64.81909519 19.38402911 -67.375 17 C-72.705033 11.71947195 -72.705033 11.71947195 -73 7 C-72 4 -72 4 -69.71484375 2.61328125 C-68.79832031 2.18402344 -67.88179687 1.75476563 -66.9375 1.3125 C-66.01839844 0.87550781 -65.09929687 0.43851563 -64.15234375 -0.01171875 C-63.08693359 -0.50091797 -63.08693359 -0.50091797 -62 -1 C-62.495 -1.495 -62.495 -1.495 -63 -2 C-65.77878432 -1.87477581 -68.48740136 -1.66267556 -71.25 -1.375 C-72.01441406 -1.31699219 -72.77882812 -1.25898437 -73.56640625 -1.19921875 C-77.69523586 -0.76422979 -79.58959125 -0.33913016 -82.87890625 2.37890625 C-83.57886719 3.24386719 -84.27882812 4.10882813 -85 5 C-85.49886719 5.59425781 -85.99773437 6.18851563 -86.51171875 6.80078125 C-86.89972656 7.29964844 -87.28773437 7.79851562 -87.6875 8.3125 C-88.450625 9.199375 -89.21375 10.08625 -90 11 C-90.66 11 -91.32 11 -92 11 C-92.33 12.65 -92.66 14.3 -93 16 C-99.11473394 18.80947235 -105.80923136 18.51181 -112.08984375 16.24609375 C-116.44705229 13.96737856 -119.28020472 10.99469932 -122 7 C-119.78226882 0.34680645 -108.80116951 -3.70521659 -102.63500977 -6.80712891 C-70.10188245 -22.52239442 -29.7712306 -21.51832144 0 0 Z " fill="#6D7971" transform="translate(212,75)"/>
<path d="M0 0 C13.08028075 2.42789434 27.4311262 16.63603935 35 27 C40.37103832 35.72587872 44.2640329 44.86853682 46 55 C46.12890625 55.71800781 46.2578125 56.43601563 46.390625 57.17578125 C50.98155629 89.25189331 45.64808675 127.68514249 30 156 C29.45472656 156.99 28.90945313 157.98 28.34765625 159 C12.66103654 185.38727228 -15.68804618 204.23421812 -45 212 C-80.89007159 220.66036719 -122.40597683 218.86224062 -155 200 C-158.89348086 197.56242489 -162.48712518 194.95759511 -166 192 C-166.70253906 191.40960938 -167.40507812 190.81921875 -168.12890625 190.2109375 C-176.74268242 182.28828623 -183.5723915 170.76865585 -188 160 C-188 159.34 -188 158.68 -188 158 C-184.23076923 159.50769231 -184.23076923 159.50769231 -183.0625 162 C-182.15864647 164.22267965 -182.15864647 164.22267965 -179.71484375 164.90625 C-175.98910407 166.40726742 -173.34749585 168.79574289 -170.28125 171.34375 C-168.0402752 173.11409773 -168.0402752 173.11409773 -165.26953125 174.0859375 C-164.52058594 174.38757813 -163.77164063 174.68921875 -163 175 C-162.1875 177.125 -162.1875 177.125 -162 179 C-160.948125 179.061875 -159.89625 179.12375 -158.8125 179.1875 C-154.91493377 179.66531022 -151.63285878 180.83764077 -148 182.3125 C-125.37968493 191.3293537 -98.32015368 194.42050651 -74.53125 188.7890625 C-70.69250176 187.93128911 -66.97013582 187.45383959 -63.0625 187 C-57.5874873 186.31059651 -52.97949771 185.3901589 -48 183 C-47.67 182.34 -47.34 181.68 -47 181 C-43.28530176 178.8537299 -41.35855288 178 -37 178 C-36.67 177.01 -36.34 176.02 -36 175 C-33.78515625 173.61328125 -33.78515625 173.61328125 -31.0625 172.3125 C-30.16660156 171.87550781 -29.27070313 171.43851563 -28.34765625 170.98828125 C-26 170 -26 170 -24 170 C-24 169.34 -24 168.68 -24 168 C-22.41671856 166.65752182 -20.78068939 165.37708643 -19.125 164.125 C-12.09886852 158.51498804 -5.87820514 151.9689768 -1.34375 144.140625 C-0.9003125 143.43421875 -0.456875 142.7278125 0 142 C0.66 142 1.32 142 2 142 C2.226875 141.175 2.45375 140.35 2.6875 139.5 C3.76815099 136.61826401 4.75493247 134.74344345 6.4375 132.25 C9.35707196 127.79290198 10.70643094 123.13220897 12 118 C12.66 118 13.32 118 14 118 C13.938125 117.21625 13.87625 116.4325 13.8125 115.625 C13.97906284 112.4047851 14.45718019 110.26710077 15.4375 107.25 C16.86607502 102.82342951 17.48124844 98.66311864 17.7890625 94.03125 C18 92 18 92 19 90 C19.13579596 87.55829491 19.21212069 85.14656302 19.23828125 82.703125 C19.24802979 81.96596252 19.25777832 81.22880005 19.26782227 80.46929932 C19.48551795 59.68752517 19.62837397 38.99295687 10 20 C9.40839876 18.77167825 8.81866698 17.54245495 8.23046875 16.3125 C5.15933924 9.78130036 5.15933924 9.78130036 1.2890625 3.71875 C0 2 0 2 0 0 Z " fill="#B28823" transform="translate(252,90)"/>
<path d="M0 0 C2.99823233 2.54922169 3.76707743 5.13118954 5.05859375 8.81640625 C7.28178449 13.97310179 11.25902539 18.14266608 14.875 22.375 C17 25 17 25 17 27 C17.598125 27.185625 18.19625 27.37125 18.8125 27.5625 C21.98962665 29.65032609 22.70612603 32.58185533 24 36 C24.67678497 37.58794295 25.36455112 39.17124478 26.0625 40.75 C26.38347656 41.48734375 26.70445313 42.2246875 27.03515625 42.984375 C28.05286471 45.23213587 28.05286471 45.23213587 30 48 C30.309375 48.969375 30.61875 49.93875 30.9375 50.9375 C31.80312191 53.95862235 31.80312191 53.95862235 33.5 55.9375 C35.54404819 58.74806626 36.07961161 61.6635921 37 65 C38.31957015 68.26750703 39.38655887 70.44406898 42 72.8125 C45.00362668 74.00143556 47.11738191 74.23421448 50.3125 74.4375 C56.61963618 74.86308274 61.29593502 76.54944112 66 80.8125 C67.57578328 84.25952593 67.71028233 86.254875 67 90 C63.28329605 94.02872354 58.3960484 97.04775616 53 98 C46.89510831 98.06494566 41.97867825 97.52884374 36.77734375 94.08984375 C34.74808722 92.84553041 32.73246944 92.07480398 30.5 91.25 C15.22025967 85.22157438 3.13920916 77.07545072 -7 64 C-7.474375 63.525625 -7.94875 63.05125 -8.4375 62.5625 C-21.27853646 49.72146354 -27.27297564 30.07985765 -27.5 12.1875 C-27.54125 11.35541016 -27.5825 10.52332031 -27.625 9.66601562 C-27.65542801 7.29453275 -27.60380495 5.2946873 -27 3 C-18.92054201 -4.07229268 -9.2476616 -4.89582085 0 0 Z " fill="#6D7971" transform="translate(81,161)"/>
<path d="M0 0 C4.2965869 3.88888157 7.8787361 8.26354941 11.46484375 12.8046875 C13.25659356 15.14421346 13.25659356 15.14421346 15.3125 17.125 C15.97916667 18.79166667 16.64583333 20.45833333 17.3125 22.125 C18.22221886 23.70858468 19.13210407 25.29207411 20.04296875 26.875 C26.02925067 37.48453349 29.98302812 47.15362135 32.3125 59.125 C32.49127686 59.95273926 32.67005371 60.78047852 32.85424805 61.63330078 C34.53114342 70.19948459 34.58575824 78.61015261 34.51831055 87.30126953 C34.49977286 89.78037558 34.49780339 92.25911233 34.49804688 94.73828125 C34.49314032 96.31771158 34.48731581 97.89713939 34.48046875 99.4765625 C34.47935593 100.21605133 34.4782431 100.95554016 34.47709656 101.71743774 C34.42867472 106.89265056 34.42867472 106.89265056 33.3125 109.125 C32.991179 111.24571857 32.70527946 113.37185795 32.4375 115.5 C31.52511259 122.19084101 30.10005692 128.61829282 28.3125 135.125 C27.6525 135.125 26.9925 135.125 26.3125 135.125 C26.20292969 135.80046875 26.09335937 136.4759375 25.98046875 137.171875 C25.82191406 138.06390625 25.66335938 138.9559375 25.5 139.875 C25.27376953 141.19757813 25.27376953 141.19757813 25.04296875 142.546875 C24.2433655 145.36900413 23.12455054 146.84763278 21.3125 149.125 C20.00424527 151.64977208 18.80145919 154.2110325 17.59375 156.78515625 C16.35720039 159.04336727 15.17108368 160.38197593 13.3125 162.125 C12.4183909 163.29817951 11.54462003 164.48703072 10.6875 165.6875 C5.38866898 172.83169506 -0.47723795 179.8491985 -7.6875 185.125 C-8.3475 185.125 -9.0075 185.125 -9.6875 185.125 C-9.6875 185.785 -9.6875 186.445 -9.6875 187.125 C-10.54214844 187.53492188 -11.39679688 187.94484375 -12.27734375 188.3671875 C-13.38207031 188.90601563 -14.48679688 189.44484375 -15.625 190 C-16.72714844 190.53367187 -17.82929688 191.06734375 -18.96484375 191.6171875 C-21.78154511 192.84159845 -21.78154511 192.84159845 -22.6875 195.125 C-28.91826923 198.125 -28.91826923 198.125 -32.6875 198.125 C-33.0175 199.115 -33.3475 200.105 -33.6875 201.125 C-39.53023455 203.82113715 -45.21775475 204.86647247 -51.5625 205.6875 C-53.24774363 205.91541162 -54.9326432 206.14588196 -56.6171875 206.37890625 C-57.45499756 206.49419678 -58.29280762 206.6094873 -59.15600586 206.72827148 C-61.69227223 207.12574789 -64.17631516 207.64574845 -66.68359375 208.1953125 C-71.77668353 209.23906802 -76.68561116 209.47089682 -81.875 209.4375 C-82.81770752 209.43186035 -83.76041504 209.4262207 -84.73168945 209.42041016 C-104.16874727 209.09611135 -121.86388174 205.38425845 -139.97265625 198.5 C-143.39078557 197.13461675 -143.39078557 197.13461675 -145.86889648 196.65625 C-146.46903564 196.4809375 -147.0691748 196.305625 -147.6875 196.125 C-147.955625 195.50625 -148.22375 194.8875 -148.5 194.25 C-150.01890295 191.53196315 -151.67110222 191.23972562 -154.484375 190.1640625 C-160.2230028 187.45754655 -165.88356609 183.39223934 -169.83203125 178.4296875 C-171.55019108 175.87040737 -171.55019108 175.87040737 -174.6875 175.125 C-175.73694485 173.48901611 -176.72907579 171.81591715 -177.6875 170.125 C-179.06663126 168.29975922 -180.46393575 166.48816783 -181.875 164.6875 C-201.390429 139.06574649 -209.51524815 107.04528575 -205.6875 75.125 C-200.96436921 42.35624429 -183.45159471 12.72121795 -157.40625 -7.66015625 C-140.52710242 -20.01006589 -121.3586459 -28.49736178 -100.6875 -31.875 C-99.91792969 -32.00519531 -99.14835937 -32.13539062 -98.35546875 -32.26953125 C-62.43306214 -37.26801083 -27.02191386 -22.93338081 0 0 Z M-158.6875 0.125 C-159.24018555 0.58132812 -159.79287109 1.03765625 -160.36230469 1.5078125 C-183.26385251 20.64606383 -197.29469482 48.22810846 -201.4375 77.625 C-201.55228327 79.12292164 -201.63031051 80.6237759 -201.6875 82.125 C-201.7390625 83.32898438 -201.790625 84.53296875 -201.84375 85.7734375 C-202.46452355 107.53657322 -198.06488742 138.27068836 -182.6875 155.125 C-182.0275 155.125 -181.3675 155.125 -180.6875 155.125 C-180.64109375 155.97964844 -180.5946875 156.83429688 -180.546875 157.71484375 C-179.40810948 162.23367237 -177.15426093 164.43627377 -173.9375 167.6875 C-173.4115625 168.23857422 -172.885625 168.78964844 -172.34375 169.35742188 C-170.80620099 170.96157264 -169.25014865 172.54533291 -167.6875 174.125 C-166.83671875 174.99640625 -165.9859375 175.8678125 -165.109375 176.765625 C-162.72450311 179.08895181 -160.27693213 181.22072435 -157.6875 183.3125 C-156.8625 183.98667969 -156.0375 184.66085937 -155.1875 185.35546875 C-152.74208307 187.08636542 -150.45659585 188.03370702 -147.6875 189.125 C-147.3575 189.785 -147.0275 190.445 -146.6875 191.125 C-144.61656601 192.11841097 -144.61656601 192.11841097 -142.125 193 C-138.9259679 194.18778415 -135.94852406 195.51131673 -132.94921875 197.125 C-128.46407825 199.40170495 -123.98346426 200.35172875 -119.0625 201.25 C-117.42383898 201.56175784 -115.7857972 201.87679076 -114.1484375 202.1953125 C-113.43478027 202.32695801 -112.72112305 202.45860352 -111.98583984 202.59423828 C-109.6875 203.125 -109.6875 203.125 -106.92163086 204.16870117 C-103.05969147 205.31063645 -99.46706072 205.3946302 -95.48046875 205.35546875 C-94.71446854 205.35501053 -93.94846832 205.35455231 -93.15925598 205.3540802 C-91.55154863 205.35107487 -89.94384375 205.34324051 -88.33618164 205.33081055 C-85.86529346 205.31242779 -83.39477791 205.31030196 -80.92382812 205.31054688 C-79.35937174 205.30563579 -77.79491789 205.29980926 -76.23046875 205.29296875 C-75.11807076 205.29129951 -75.11807076 205.29129951 -73.98320007 205.28959656 C-70.5459099 205.56443841 -70.5459099 205.56443841 -67.6875 204.125 C-65.58889534 203.79568971 -63.48298718 203.51263447 -61.375 203.25 C-54.66062544 202.34097698 -48.21609222 200.91856929 -41.6875 199.125 C-41.6875 198.465 -41.6875 197.805 -41.6875 197.125 C-41.15382812 196.95484375 -40.62015625 196.7846875 -40.0703125 196.609375 C-37.60040489 195.80601405 -35.14331786 194.97044549 -32.6875 194.125 C-31.89472656 193.85816406 -31.10195312 193.59132813 -30.28515625 193.31640625 C-20.66032276 189.8065399 -12.3459742 183.84951393 -4.6875 177.125 C-3.89472656 176.52042969 -3.10195312 175.91585937 -2.28515625 175.29296875 C0.33916576 173.10274512 2.32879769 170.87092706 4.4375 168.1875 C5.10007813 167.35347656 5.76265625 166.51945313 6.4453125 165.66015625 C8.3572248 163.16228986 8.3572248 163.16228986 9.8671875 160.43359375 C11.3125 158.125 11.3125 158.125 14.3125 156.125 C19.53553467 147.6946434 23.03260096 138.69797376 25.75 129.1875 C26.11992065 127.89332153 26.11992065 127.89332153 26.49731445 126.57299805 C27.81577381 121.69737194 28.68060569 116.9715322 29.08618164 111.93530273 C29.3125 110.125 29.3125 110.125 30.3125 108.125 C30.39933445 105.35339374 30.4280579 102.60725235 30.41015625 99.8359375 C30.4087413 99.01751373 30.40732635 98.19908997 30.40586853 97.35586548 C30.4002629 94.73720675 30.38770948 92.11863296 30.375 89.5 C30.36998572 87.72656373 30.36542269 85.95312613 30.36132812 84.1796875 C30.35029164 79.82809218 30.33302325 75.4765605 30.3125 71.125 C29.6525 71.125 28.9925 71.125 28.3125 71.125 C28.34859375 70.16207031 28.3846875 69.19914062 28.421875 68.20703125 C28.41725557 63.61185086 27.53282464 59.28930628 26.5625 54.8125 C26.38493164 53.9774292 26.20736328 53.1423584 26.02441406 52.28198242 C24.69910169 46.29886089 22.98737738 40.65971969 20.3125 35.125 C19.6525 35.125 18.9925 35.125 18.3125 35.125 C18.3125 34.465 18.3125 33.805 18.3125 33.125 C17.6525 33.125 16.9925 33.125 16.3125 33.125 C16.4671875 31.8565625 16.4671875 31.8565625 16.625 30.5625 C16.25579661 26.50126269 15.05873773 24.91649135 12.61328125 21.7890625 C10.96908298 19.68567372 9.6755954 17.41747862 8.3125 15.125 C6.91292803 12.84015694 6.91292803 12.84015694 5.3125 11.125 C4.3225 11.125 3.3325 11.125 2.3125 11.125 C2.085625 10.56941406 1.85875 10.01382813 1.625 9.44140625 C-8.23271034 -7.95627896 -34.83107913 -18.90001654 -53.125 -24.1875 C-91.12341877 -33.51693264 -128.73433477 -24.92614202 -158.6875 0.125 Z " fill="#69736E" transform="translate(237.6875,72.875)"/>
<path d="M0 0 C0.82346924 0.29720947 1.64693848 0.59441895 2.49536133 0.90063477 C4.41796875 2.05859375 4.41796875 2.05859375 5.1940918 4.18725586 C5.30491089 5.11356812 5.30491089 5.11356812 5.41796875 6.05859375 C1.2870789 7.43555703 -1.42175091 5.87751978 -5.33203125 4.43359375 C-45.98100657 -9.78854569 -90.46896464 -10.48804116 -129.64453125 8.37109375 C-156.01971707 21.93797584 -176.31691402 43.28934971 -190.58203125 69.05859375 C-190.93539551 69.69667969 -191.28875977 70.33476563 -191.65283203 70.9921875 C-213.99929985 111.99336704 -215.62352428 161.79916381 -202.69921875 206.08349609 C-200.5158359 213.09807218 -198.25721786 220.12813973 -195.375 226.890625 C-194.58203125 229.05859375 -194.58203125 229.05859375 -194.58203125 233.05859375 C-195.57203125 233.38859375 -196.56203125 233.71859375 -197.58203125 234.05859375 C-206.05386643 220.78855104 -209.23949591 204.22480106 -212.58203125 189.05859375 C-212.76427246 188.26098633 -212.94651367 187.46337891 -213.13427734 186.64160156 C-218.28723292 163.20975384 -218.1524389 134.38467577 -212.58203125 111.05859375 C-212.38867188 110.22730957 -212.1953125 109.39602539 -211.99609375 108.53955078 C-208.74144184 94.99608029 -203.72825589 82.53224414 -197.58203125 70.05859375 C-197.06769531 69.0015625 -196.55335938 67.94453125 -196.0234375 66.85546875 C-178.79061007 33.46381447 -148.36734187 7.09179639 -112.89453125 -4.94140625 C-109.47622272 -6.01939715 -106.04246458 -7.00813787 -102.58203125 -7.94140625 C-101.89270508 -8.13202637 -101.20337891 -8.32264648 -100.49316406 -8.51904297 C-68.70739766 -16.80102731 -30.3058968 -11.00908088 0 0 Z " fill="#6A736F" transform="translate(216.58203125,19.94140625)"/>
<path d="M0 0 C3.69068595 3.57884698 7.09198395 7.33726742 10.44921875 11.23046875 C11.58693322 12.52866688 12.7794033 13.7794033 14 15 C14.66666667 16.66666667 15.33333333 18.33333333 16 20 C16.90971886 21.58358468 17.81960407 23.16707411 18.73046875 24.75 C24.71675067 35.35953349 28.67052812 45.02862135 31 57 C31.26816528 58.24160889 31.26816528 58.24160889 31.54174805 59.50830078 C33.21864342 68.07448459 33.27325824 76.48515261 33.20581055 85.17626953 C33.18727286 87.65537558 33.18530339 90.13411233 33.18554688 92.61328125 C33.18064032 94.19271158 33.17481581 95.77213939 33.16796875 97.3515625 C33.16685593 98.09105133 33.1657431 98.83054016 33.16459656 99.59243774 C33.11617472 104.76765056 33.11617472 104.76765056 32 107 C31.678679 109.12071857 31.39277946 111.24685795 31.125 113.375 C30.21261259 120.06584101 28.78755692 126.49329282 27 133 C26.34 133 25.68 133 25 133 C24.89042969 133.67546875 24.78085937 134.3509375 24.66796875 135.046875 C24.50941406 135.93890625 24.35085938 136.8309375 24.1875 137.75 C23.96126953 139.07257813 23.96126953 139.07257813 23.73046875 140.421875 C22.9308655 143.24400413 21.81205054 144.72263278 20 147 C18.69174527 149.52477208 17.48895919 152.0860325 16.28125 154.66015625 C15.04470039 156.91836727 13.85858368 158.25697593 12 160 C11.1058909 161.17317951 10.23212003 162.36203072 9.375 163.5625 C4.07616898 170.70669506 -1.78973795 177.7241985 -9 183 C-9.66 183 -10.32 183 -11 183 C-11 183.66 -11 184.32 -11 185 C-11.85464844 185.40992188 -12.70929688 185.81984375 -13.58984375 186.2421875 C-14.69457031 186.78101563 -15.79929688 187.31984375 -16.9375 187.875 C-18.03964844 188.40867187 -19.14179688 188.94234375 -20.27734375 189.4921875 C-23.09404511 190.71659845 -23.09404511 190.71659845 -24 193 C-30.23076923 196 -30.23076923 196 -34 196 C-34.33 196.99 -34.66 197.98 -35 199 C-40.84273455 201.69613715 -46.53025475 202.74147247 -52.875 203.5625 C-54.56024363 203.79041162 -56.2451432 204.02088196 -57.9296875 204.25390625 C-59.18640259 204.42684204 -59.18640259 204.42684204 -60.46850586 204.60327148 C-63.00477223 205.00074789 -65.48881516 205.52074845 -67.99609375 206.0703125 C-73.08918353 207.11406802 -77.99811116 207.34589682 -83.1875 207.3125 C-84.13020752 207.30686035 -85.07291504 207.3012207 -86.04418945 207.29541016 C-105.48124727 206.97111135 -123.17638174 203.25925845 -141.28515625 196.375 C-144.70328557 195.00961675 -144.70328557 195.00961675 -147.18139648 194.53125 C-147.78153564 194.3559375 -148.3816748 194.180625 -149 194 C-149.4021875 193.071875 -149.4021875 193.071875 -149.8125 192.125 C-151.33140295 189.40696315 -152.98360222 189.11472562 -155.796875 188.0390625 C-161.5355028 185.33254655 -167.19606609 181.26723934 -171.14453125 176.3046875 C-172.86269108 173.74540737 -172.86269108 173.74540737 -176 173 C-176 170.36 -176 167.72 -176 165 C-174.86800647 165.9080162 -173.74467637 166.82683826 -172.625 167.75 C-171.68527344 168.51570313 -171.68527344 168.51570313 -170.7265625 169.296875 C-169 171 -169 171 -168.0234375 173.078125 C-166.71368057 175.53766855 -165.50854239 175.87092829 -163 177 C-160.72365181 178.72660399 -158.52460472 180.53110708 -156.31640625 182.34375 C-154.04911437 184.11411788 -154.04911437 184.11411788 -151.27734375 185.03125 C-150.52582031 185.3509375 -149.77429688 185.670625 -149 186 C-148.67 186.99 -148.34 187.98 -148 189 C-147.27554688 189.12632812 -146.55109375 189.25265625 -145.8046875 189.3828125 C-143.07765944 189.9829106 -140.70277547 190.81259413 -138.125 191.875 C-137.32320312 192.20242188 -136.52140625 192.52984375 -135.6953125 192.8671875 C-133.66540427 193.72033734 -131.65383513 194.61731948 -129.65234375 195.53515625 C-125.89816572 197.04084263 -122.41321729 197.84890972 -118.4375 198.5625 C-111.45204379 199.82803301 -111.45204379 199.82803301 -108.28662109 201.03222656 C-104.40278965 202.17585365 -100.80078635 202.26983871 -96.79296875 202.23046875 C-96.02696854 202.23001053 -95.26096832 202.22955231 -94.47175598 202.2290802 C-92.86404863 202.22607487 -91.25634375 202.21824051 -89.64868164 202.20581055 C-87.17779346 202.18742779 -84.70727791 202.18530196 -82.23632812 202.18554688 C-80.67187174 202.18063579 -79.10741789 202.17480926 -77.54296875 202.16796875 C-76.43057076 202.16629951 -76.43057076 202.16629951 -75.29570007 202.16459656 C-71.8584099 202.43943841 -71.8584099 202.43943841 -69 201 C-66.81854479 200.64777046 -64.62923946 200.34373062 -62.4375 200.0625 C-58.35033997 199.50950683 -54.36084985 198.94142283 -50.375 197.875 C-47 197 -47 197 -43 197 C-43 196.34 -43 195.68 -43 195 C-39.58203125 193.53515625 -36.1640625 192.0703125 -32.74609375 190.60546875 C-32.12637695 190.33790771 -31.50666016 190.07034668 -30.86816406 189.79467773 C-29.05093366 189.02166611 -27.2189143 188.28371472 -25.38671875 187.546875 C-22.02454829 186.01121237 -19.32518018 184.27726063 -16.375 182.0625 C-15.47523438 181.39347656 -14.57546875 180.72445312 -13.6484375 180.03515625 C-4.77462526 173.21619434 3.28946767 165.70790497 9 156 C9.99 155.34 10.98 154.68 12 154 C17.22303467 145.5696434 20.72010096 136.57297376 23.4375 127.0625 C23.68411377 126.19971436 23.93072754 125.33692871 24.18481445 124.44799805 C25.50327381 119.57237194 26.36810569 114.8465322 26.77368164 109.81030273 C27 108 27 108 28 106 C28.15691907 103.23068632 28.25843134 100.48265893 28.31640625 97.7109375 C28.3475779 96.48330185 28.3475779 96.48330185 28.37937927 95.23086548 C28.44484812 92.61233034 28.50374726 89.99369361 28.5625 87.375 C28.60568776 85.60155193 28.64930214 83.82811419 28.69335938 82.0546875 C28.80052676 77.70322954 28.90180169 73.35166923 29 69 C28.34 69 27.68 69 27 69 C26.86424561 68.24904053 26.72849121 67.49808105 26.58862305 66.72436523 C25.96346295 63.29378926 25.32560072 59.86569153 24.6875 56.4375 C24.47416016 55.25607422 24.26082031 54.07464844 24.04101562 52.85742188 C22.90880022 46.82457263 21.59693791 41.55181155 19 36 C19 35.01 19 34.02 19 33 C18.34 33 17.68 33 17 33 C17 32.34 17 31.68 17 31 C16.34 31 15.68 31 15 31 C14.79375 30.05125 14.5875 29.1025 14.375 28.125 C12.52141143 21.57743173 8.38697218 15.16586019 4 10 C3.01 9.67 2.02 9.34 1 9 C-0.75 7.1875 -0.75 7.1875 -2 5 C-1.75203633 2.83031791 -1.55766393 1.55766393 0 0 Z " fill="#797A5E" transform="translate(239,75)"/>
<path d="M0 0 C2.31 0.33 4.62 0.66 7 1 C7.50403768 2.29009643 8.00309926 3.58213789 8.5 4.875 C8.7784375 5.59429688 9.056875 6.31359375 9.34375 7.0546875 C10 9 10 9 10 11 C10.556875 11.268125 11.11375 11.53625 11.6875 11.8125 C14.19712523 13.10122647 16.59334236 14.52926478 19 16 C19.103125 15.071875 19.20625 14.14375 19.3125 13.1875 C20 10 20 10 21.25 8.0625 C23 7 23 7 25.625 7.1875 C28 8 28 8 29 10 C28.96248267 11.80291596 28.92466545 13.6058266 28.88476562 15.40869141 C28.83129827 22.72909578 28.83129827 22.72909578 32.4765625 28.84765625 C35.43915091 31.14995658 35.43915091 31.14995658 38.53125 33.0078125 C41 35 41 35 41.84375 38.2421875 C41.8953125 39.15226562 41.946875 40.06234375 42 41 C38.99625643 43.34667466 37.2878352 43.99495026 33.4375 44.0625 C28.40695829 43.22727647 24.09471494 40.74955367 19.63671875 38.375 C15.78275651 36.36523006 12.47686633 35.7591315 8.1953125 35.31640625 C7.05449219 35.19330078 5.91367188 35.07019531 4.73828125 34.94335938 C2.33755902 34.69031027 -0.06348439 34.44028915 -2.46484375 34.19335938 C-3.60824219 34.06896484 -4.75164062 33.94457031 -5.9296875 33.81640625 C-6.97366699 33.70756104 -8.01764648 33.59871582 -9.09326172 33.48657227 C-12.02457672 32.99588599 -14.3691482 32.38641808 -17 31 C-17.8125 27.875 -17.8125 27.875 -18 25 C-14.52934193 22.68622795 -11.32959845 22.11015527 -7.3125 21.375 C-6.61060547 21.2409375 -5.90871094 21.106875 -5.18554688 20.96875 C-3.45818294 20.6397283 -1.72923409 20.31904688 0 20 C-0.73089844 19.17822266 -0.73089844 19.17822266 -1.4765625 18.33984375 C-4.13760921 14.25274893 -3.54377788 9.71274164 -3 5 C-1.5 1.8125 -1.5 1.8125 0 0 Z M2 5 C0.85815845 10.52378486 0.85815845 10.52378486 2.1875 15.8125 C3.96640277 17.95945162 5.76517915 19.36113137 8 21 C8.33 21.99 8.66 22.98 9 24 C-0.9 25.485 -0.9 25.485 -11 27 C-7.72499299 29.18333801 -6.34866479 29.33007783 -2.51171875 29.60546875 C19.50989671 31.48051231 19.50989671 31.48051231 29.36328125 37.57421875 C32.20475265 39.1107181 33.82402376 39.30660608 37 39 C33.45881488 35.36734515 29.76714812 32.00596543 25.875 28.75 C25.31312988 28.27618896 24.75125977 27.80237793 24.17236328 27.31420898 C21.40797612 24.9898052 18.62722787 22.68899838 15.8125 20.42578125 C14.843125 19.64589844 13.87375 18.86601563 12.875 18.0625 C11.57175781 17.02802734 11.57175781 17.02802734 10.2421875 15.97265625 C6.43566978 12.62371644 4.70071261 10.04513077 4 5 C3.34 5 2.68 5 2 5 Z M23 17 C24 21 24 21 24 21 Z " fill="#69736F" transform="translate(240,16)"/>
<path d="M0 0 C2.73083902 -0.13548815 5.45491807 -0.23429855 8.1875 -0.3125 C8.95642578 -0.35439453 9.72535156 -0.39628906 10.51757812 -0.43945312 C14.96628173 -0.53491887 16.47554876 -0.43312555 20.05078125 2.51953125 C20.69402344 3.33808594 21.33726562 4.15664063 22 5 C21.34 6.98 20.68 8.96 20 11 C19.34 11 18.68 11 18 11 C18.74359673 16.55053286 18.74359673 16.55053286 20 22 C17 24 17 24 13.375 23.6875 C10 23 10 23 9 22 C8.95907063 19.66702567 8.95758277 17.33294775 9 15 C8.34 14.67 7.68 14.34 7 14 C7 16.97 7 19.94 7 23 C2.71 23 -1.58 23 -6 23 C-5.3503125 21.205625 -5.3503125 21.205625 -4.6875 19.375 C-2.56188917 13.04877728 -1.31057203 6.53427046 0 0 Z M9 5 C8.67 6.65 8.34 8.3 8 10 C9.32 9.34 10.64 8.68 12 8 C12 7.01 12 6.02 12 5 C11.01 5 10.02 5 9 5 Z " fill="#C28909" transform="translate(209,315)"/>
<path d="M0 0 C3.125 1.5 3.125 1.5 5 4 C5.72068627 9.58531861 5.18685528 13.21971708 2 18 C-1.7579198 21.79898996 -4.94862567 23.84804635 -10.375 24.25 C-14.21904558 23.98489341 -15.97387084 23.31409877 -19 21 C-20.80383202 17.39233596 -20.55424307 13.70073444 -19.31640625 9.90234375 C-15.41443514 1.24029171 -9.24930121 -1.47742582 0 0 Z M-6 4 C-9.54872352 8.87949485 -11 14.00773934 -11 20 C-8.45754871 19.01768927 -7.24514218 18.46558721 -5.953125 16.01171875 C-4.15016704 10.12563031 -4.15016704 10.12563031 -4 4 C-4.66 4 -5.32 4 -6 4 Z " fill="#C0890C" transform="translate(23,315)"/>
<path d="M0 0 C3.96 0 7.92 0 12 0 C12.33 1.65 12.66 3.3 13 5 C13.66 3.35 14.32 1.7 15 0 C18.3 0 21.6 0 25 0 C23.90070338 4.39718646 23.44549271 4.79997334 19.9375 7.25 C19.20402344 7.77078125 18.47054687 8.2915625 17.71484375 8.828125 C17.14894531 9.21484375 16.58304688 9.6015625 16 10 C16.51446049 14.42436025 17.61382067 17.26511061 20 21 C20 21.66 20 22.32 20 23 C15.71 23 11.42 23 7 23 C7 21.02 7 19.04 7 17 C5.43750191 18.31201173 5.43750191 18.31201173 4 20 C4 20.99 4 21.98 4 23 C0.37 23 -3.26 23 -7 23 C-7 22.01 -7 21.02 -7 20 C-4.25 18 -4.25 18 -1 16 C0.34175973 15.01133494 1.67896002 14.0161846 3 13 C2.50675463 8.65944077 1.6024973 6.43056463 -1 3 C-0.67 2.01 -0.34 1.02 0 0 Z " fill="#C08A0E" transform="translate(36,315)"/>
<path d="M0 0 C6.27 0 12.54 0 19 0 C20.125 5.625 20.125 5.625 18 9 C17.01 9 16.02 9 15 9 C14.34 10.98 13.68 12.96 13 15 C13.99 15 14.98 15 16 15 C15.125 21.875 15.125 21.875 14 23 C12.5112814 23.08669432 11.018555 23.10703494 9.52734375 23.09765625 C8.62822266 23.09443359 7.72910156 23.09121094 6.80273438 23.08789062 C5.85720703 23.07951172 4.91167969 23.07113281 3.9375 23.0625 C2.98810547 23.05798828 2.03871094 23.05347656 1.06054688 23.04882812 C-1.29303065 23.0370011 -3.64648477 23.02052025 -6 23 C-5.80035645 22.36521729 -5.60071289 21.73043457 -5.39501953 21.07641602 C-3.22280832 14.12578989 -1.5874539 7.10574601 0 0 Z M10 4 C9.34 5.65 8.68 7.3 8 9 C9.98 8.34 11.96 7.68 14 7 C13.67 6.01 13.34 5.02 13 4 C12.01 4 11.02 4 10 4 Z M7 13 C6.67 14.98 6.34 16.96 6 19 C7.32 18.67 8.64 18.34 10 18 C10 17.01 10 16.02 10 15 C9.01 14.34 8.02 13.68 7 13 Z " fill="#C38B0B" transform="translate(294,315)"/>
<path d="M0 0 C1.04285156 -0.00515625 2.08570313 -0.0103125 3.16015625 -0.015625 C5.9375 0.25 5.9375 0.25 8.9375 2.25 C9.29394531 4.11352539 9.29394531 4.11352539 9.265625 6.34765625 C9.26046875 7.14880859 9.2553125 7.94996094 9.25 8.77539062 C9.229375 9.61263672 9.20875 10.44988281 9.1875 11.3125 C9.18234375 12.15361328 9.1771875 12.99472656 9.171875 13.86132812 C9.09149235 20.09600765 9.09149235 20.09600765 7.9375 21.25 C6.27132885 21.29063832 4.60361905 21.292721 2.9375 21.25 C2.69 20.610625 2.4425 19.97125 2.1875 19.3125 C1.12187567 17.06258459 1.12187567 17.06258459 -1.1875 16.5 C-1.80625 16.4175 -2.425 16.335 -3.0625 16.25 C-3.35125 16.889375 -3.64 17.52875 -3.9375 18.1875 C-5.0625 20.25 -5.0625 20.25 -7.0625 21.25 C-9.06210012 21.289992 -11.06297242 21.29346799 -13.0625 21.25 C-13.32497689 13.37569316 -13.32497689 13.37569316 -11.0625 9.25 C-10.93875 8.05375 -10.815 6.8575 -10.6875 5.625 C-10.0625 2.25 -10.0625 2.25 -8.40234375 1.0546875 C-5.50136612 0.0570224 -3.06503637 -0.01519225 0 0 Z " fill="#71796C" transform="translate(247.0625,182.75)"/>
<path d="M0 0 C0.7734375 -0.00773437 1.546875 -0.01546875 2.34375 -0.0234375 C5.03399124 0.47367229 5.94527052 1.13598829 7.5 3.375 C7.64453125 5.35546875 7.64453125 5.35546875 7.3125 7.5625 C7.19648438 8.35269531 7.08046875 9.14289063 6.9609375 9.95703125 C6.29055279 13.47371035 5.39629793 16.90931468 4.5 20.375 C4.5 21.365 4.5 22.355 4.5 23.375 C0.54 23.375 -3.42 23.375 -7.5 23.375 C-6.84 21.395 -6.18 19.415 -5.5 17.375 C-6.82 17.375 -8.14 17.375 -9.5 17.375 C-9.5 19.355 -9.5 21.335 -9.5 23.375 C-12.47 23.375 -15.44 23.375 -18.5 23.375 C-18.5 22.385 -18.5 21.395 -18.5 20.375 C-17.16666667 19.04166667 -15.83333333 17.70833333 -14.5 16.375 C-13.25035988 14.22239412 -12.06575039 12.03114003 -10.9375 9.8125 C-5.90647551 -0.05906476 -5.90647551 -0.05906476 0 0 Z M-3.5 5.375 C-5.75885324 8.62897508 -5.75885324 8.62897508 -6.5 12.375 C-5.18 12.045 -3.86 11.715 -2.5 11.375 C-2.17 9.725 -1.84 8.075 -1.5 6.375 C-2.16 6.045 -2.82 5.715 -3.5 5.375 Z " fill="#BD8818" transform="translate(154.5,314.625)"/>
<path d="M0 0 C0.7734375 -0.00773437 1.546875 -0.01546875 2.34375 -0.0234375 C5.03399124 0.47367229 5.94527052 1.13598829 7.5 3.375 C7.64453125 5.35546875 7.64453125 5.35546875 7.3125 7.5625 C7.19648438 8.35269531 7.08046875 9.14289063 6.9609375 9.95703125 C6.29055279 13.47371035 5.39629793 16.90931468 4.5 20.375 C4.5 21.365 4.5 22.355 4.5 23.375 C0.54 23.375 -3.42 23.375 -7.5 23.375 C-6.84 21.395 -6.18 19.415 -5.5 17.375 C-6.82 17.375 -8.14 17.375 -9.5 17.375 C-9.5 19.355 -9.5 21.335 -9.5 23.375 C-12.47 23.375 -15.44 23.375 -18.5 23.375 C-18.5 22.385 -18.5 21.395 -18.5 20.375 C-17.16666667 19.04166667 -15.83333333 17.70833333 -14.5 16.375 C-13.25035988 14.22239412 -12.06575039 12.03114003 -10.9375 9.8125 C-5.90647551 -0.05906476 -5.90647551 -0.05906476 0 0 Z M-3.5 5.375 C-5.75885324 8.62897508 -5.75885324 8.62897508 -6.5 12.375 C-5.18 12.045 -3.86 11.715 -2.5 11.375 C-2.17 9.725 -1.84 8.075 -1.5 6.375 C-2.16 6.045 -2.82 5.715 -3.5 5.375 Z " fill="#C18909" transform="translate(250.5,314.625)"/>
<path d="M0 0 C2.43017578 -0.34057617 2.43017578 -0.34057617 5.4453125 -0.29296875 C6.52167969 -0.28330078 7.59804687 -0.27363281 8.70703125 -0.26367188 C10.39892578 -0.2259668 10.39892578 -0.2259668 12.125 -0.1875 C13.26066406 -0.17396484 14.39632812 -0.16042969 15.56640625 -0.14648438 C18.37807387 -0.11104319 21.18880417 -0.06163517 24 0 C23.67 2.64 23.34 5.28 23 8 C21.68 8.33 20.36 8.66 19 9 C18.34 7.68 17.68 6.36 17 5 C16.34 5 15.68 5 15 5 C14.87625 5.99 14.7525 6.98 14.625 8 C14.2310246 10.80921587 13.65406549 13.50570665 12.9375 16.25 C11.87873219 19.840836 11.87873219 19.840836 12 23 C8.04 23 4.08 23 0 23 C2 17 4 11 6 5 C5.34 5 4.68 5 4 5 C3.67 5.99 3.34 6.98 3 8 C1.35 8.33 -0.3 8.66 -2 9 C-2.25 3.375 -2.25 3.375 0 0 Z " fill="#BF8911" transform="translate(180,315)"/>
<path d="M0 0 C3.96 0 7.92 0 12 0 C12.77772405 2.33317216 13.42415568 4.61435923 14 7 C14.804375 5.5459375 14.804375 5.5459375 15.625 4.0625 C18 1 18 1 21.125 0 C22.07375 0 23.0225 0 24 0 C26 2 26 2 26.125 4.625 C26.08375 5.40875 26.0425 6.1925 26 7 C24.14375 7.5259375 24.14375 7.5259375 22.25 8.0625 C19.01928162 9.2768835 17.30850277 10.35074909 15.5 13.3125 C13.62320187 17.26281015 13.62320187 17.26281015 14 23 C9.71 23 5.42 23 1 23 C1.66 21.35 2.32 19.7 3 18 C4.23300687 13.88136971 3.83005695 11.76719611 2.0625 7.875 C0 3.27457627 0 3.27457627 0 0 Z " fill="#BF8A0E" transform="translate(66,315)"/>
<path d="M0 0 C2.60478883 -0.0809313 5.20706653 -0.14045434 7.8125 -0.1875 C8.55048828 -0.21263672 9.28847656 -0.23777344 10.04882812 -0.26367188 C15.49505553 -0.33760256 15.49505553 -0.33760256 18.02734375 1.35546875 C19 3 19 3 18.75 5.5 C18.19717158 7.34276141 17.60839041 9.17482878 17 11 C17.04125 11.825 17.0825 12.65 17.125 13.5 C17 16 17 16 15.77026367 17.63793945 C13.53157651 19.36041024 12.35016907 19.34933226 9.55078125 19.29296875 C8.70322266 19.28330078 7.85566406 19.27363281 6.98242188 19.26367188 C5.66081055 19.2259668 5.66081055 19.2259668 4.3125 19.1875 C3.41982422 19.17396484 2.52714844 19.16042969 1.60742188 19.14648438 C-0.59566166 19.11114079 -2.79752582 19.06180493 -5 19 C-4.79721436 18.41484619 -4.59442871 17.82969238 -4.38549805 17.22680664 C-2.94052655 12.98929618 -1.62059262 8.85092893 -0.8125 4.4375 C-0.65394531 3.59058594 -0.49539062 2.74367188 -0.33203125 1.87109375 C-0.22246094 1.25363281 -0.11289063 0.63617188 0 0 Z M9 3 C8.67 4.32 8.34 5.64 8 7 C8.66 7 9.32 7 10 7 C10.33 6.01 10.66 5.02 11 4 C10.34 3.67 9.68 3.34 9 3 Z M6 11 C5.67 12.65 5.34 14.3 5 16 C5.99 15.67 6.98 15.34 8 15 C8.33 14.01 8.66 13.02 9 12 C8.01 11.67 7.02 11.34 6 11 Z " fill="#6B7672" transform="translate(164,350)"/>
<path d="M0 0 C3.63 0 7.26 0 11 0 C12.06546953 3.1964086 12.07427838 5.65747276 12 9 C12.43699219 8.15115234 12.43699219 8.15115234 12.8828125 7.28515625 C16.24687701 1.26580811 16.24687701 1.26580811 20.1875 -0.125 C23 0 23 0 25 2 C24.625 4.625 24.625 4.625 24 7 C23.09378906 7.19464844 22.18757813 7.38929688 21.25390625 7.58984375 C17.16971574 9.35982307 15.89113596 11.77350668 13.9375 15.5625 C10.72118515 21.76302451 10.72118515 21.76302451 7.25390625 22.90234375 C6.51011719 22.93457031 5.76632812 22.96679688 5 23 C2.28756911 15.51369074 0 8.01458058 0 0 Z " fill="#C58C04" transform="translate(265,315)"/>
<path d="M0 0 C3.63 0 7.26 0 11 0 C12.06546953 3.1964086 12.07427838 5.65747276 12 9 C12.43699219 8.15115234 12.43699219 8.15115234 12.8828125 7.28515625 C16.24687701 1.26580811 16.24687701 1.26580811 20.1875 -0.125 C23 0 23 0 25 2 C24.625 4.625 24.625 4.625 24 7 C23.09378906 7.19464844 22.18757813 7.38929688 21.25390625 7.58984375 C17.16971574 9.35982307 15.89113596 11.77350668 13.9375 15.5625 C10.72118515 21.76302451 10.72118515 21.76302451 7.25390625 22.90234375 C6.51011719 22.93457031 5.76632813 22.96679688 5 23 C2.28756911 15.51369074 0 8.01458058 0 0 Z " fill="#BF8B0F" transform="translate(96,315)"/>
<path d="M0 0 C-0.26041667 1.953125 -0.52083333 3.90625 -0.78125 5.859375 C-1.06777357 8.30458395 -1.06777357 8.30458395 -1 12 C-1.82973934 14.42995092 -2.92126483 16.66274046 -4 19 C-13.94058609 20.44495384 -13.94058609 20.44495384 -18.125 18.6875 C-20.73069383 16.34237555 -20.96552745 15.35162004 -21.3125 11.8125 C-20.91158435 6.92132901 -19.93041191 4.93292125 -17 1 C-11.7154594 -2.09338962 -5.82613935 -0.7671429 0 0 Z M-10 4 C-12.3890198 8.53338332 -12.3890198 8.53338332 -12.6875 13.4375 C-12.460625 13.953125 -12.23375 14.46875 -12 15 C-11.01 14.67 -10.02 14.34 -9 14 C-9.33 12.35 -9.66 10.7 -10 9 C-8.02 8.67 -6.04 8.34 -4 8 C-5.29467677 5.94009522 -5.29467677 5.94009522 -7 4 C-7.99 4 -8.98 4 -10 4 Z " fill="#6A756F" transform="translate(135,350)"/>
<path d="M0 0 C3.96 0 7.92 0 12 0 C11.00175426 3.99298296 9.75192917 7.85457687 8.4375 11.75 C8.20353516 12.44738281 7.96957031 13.14476562 7.72851562 13.86328125 C7.15370621 15.5759787 6.57703725 17.28805186 6 19 C9.39914975 17.86695008 10.05254451 16.87481525 12 14 C14.475 14.495 14.475 14.495 17 15 C16.125 20.75 16.125 20.75 15 23 C8.07 23 1.14 23 -6 23 C-5.01 20.03 -4.02 17.06 -3 14 C-2.3952611 11.48896479 -1.82848117 8.96826478 -1.3125 6.4375 C-1.06113281 5.21933594 -0.80976563 4.00117188 -0.55078125 2.74609375 C-0.36902344 1.83988281 -0.18726563 0.93367188 0 0 Z " fill="#C28A0A" transform="translate(320,315)"/>
<path d="M0 0 C5.61 0 11.22 0 17 0 C16.67 2.31 16.34 4.62 16 7 C15.01 7 14.02 7 13 7 C12.3185177 8.89179203 12.3185177 8.89179203 12 11 C12.66 11.66 13.32 12.32 14 13 C13.67 14.98 13.34 16.96 13 19 C7.06 19 1.12 19 -5 19 C-4.54625 17.72125 -4.0925 16.4425 -3.625 15.125 C-1.95358043 10.14242696 -0.94591659 5.16615984 0 0 Z M8 3 C7.67 4.32 7.34 5.64 7 7 C8.65 6.67 10.3 6.34 12 6 C11.67 5.01 11.34 4.02 11 3 C10.01 3 9.02 3 8 3 Z M6 11 C5.67 12.65 5.34 14.3 5 16 C6.32 15.67 7.64 15.34 9 15 C8.34 13.68 7.68 12.36 7 11 C6.67 11 6.34 11 6 11 Z " fill="#68716E" transform="translate(189,350)"/>
<path d="M0 0 C1.28132812 0.00902344 2.56265625 0.01804687 3.8828125 0.02734375 C4.87023437 0.03894531 5.85765625 0.05054688 6.875 0.0625 C6.545 2.3725 6.215 4.6825 5.875 7.0625 C2.50037285 6.51526317 0.79265 6.0076 -2.125 4.0625 C-0.949375 4.866875 -0.949375 4.866875 0.25 5.6875 C3.26350204 8.41400184 4.13104791 10.09475552 4.875 14.0625 C4.4375 16.3125 4.4375 16.3125 2.875 18.0625 C-2.91817116 20.59701238 -7.9730834 19.97847953 -14.125 19.0625 C-13.795 16.7525 -13.465 14.4425 -13.125 12.0625 C-8.84790301 12.0625 -7.56569624 12.76870251 -4.125 15.0625 C-4.90875 14.52625 -5.6925 13.99 -6.5 13.4375 C-9.51350204 10.71099816 -10.38104791 9.03024448 -11.125 5.0625 C-10.375 2.75 -10.375 2.75 -9.125 1.0625 C-6.12186252 -0.43906874 -3.33432478 -0.03031204 0 0 Z " fill="#68736D" transform="translate(221.125,349.9375)"/>
<path d="M0 0 C1 1 1 1 1.1875 4 C1.14781401 7.83366674 0.35686078 11.3726659 -0.5625 15.08203125 C-1.07413115 16.9971133 -1.07413115 16.9971133 -1 19 C-4.63 19 -8.26 19 -12 19 C-12 18.34 -12 17.68 -12 17 C-11.34 17 -10.68 17 -10 17 C-10 16.01 -10 15.02 -10 14 C-10.99 14 -11.98 14 -13 14 C-13 15.65 -13 17.3 -13 19 C-15.64 19 -18.28 19 -21 19 C-20.505 17.515 -20.505 17.515 -20 16 C-19.34 16 -18.68 16 -18 16 C-17.6596875 14.7934375 -17.6596875 14.7934375 -17.3125 13.5625 C-13.23035765 2.48239932 -13.23035765 2.48239932 -9.06640625 -0.28515625 C-5.88546388 -1.38555786 -3.2355064 -0.6715202 0 0 Z M-8 4 C-8.99 5.98 -9.98 7.96 -11 10 C-10.01 10 -9.02 10 -8 10 C-7.67 8.02 -7.34 6.04 -7 4 C-7.33 4 -7.66 4 -8 4 Z " fill="#6B7570" transform="translate(157,350)"/>
<path d="M0 0 C3.96 0 7.92 0 12 0 C11.15628379 3.37486484 10.14468488 6.53415618 9 9.8125 C7.49986413 14.25311957 6.42366795 18.3396525 6 23 C2.04 23 -1.92 23 -6 23 C-5.3503125 21.205625 -5.3503125 21.205625 -4.6875 19.375 C-2.56188917 13.04877728 -1.31057203 6.53427046 0 0 Z " fill="#C58A02" transform="translate(125,315)"/>
<path d="M0 0 C3.69068595 3.57884698 7.09198395 7.33726742 10.44921875 11.23046875 C11.58693322 12.52866688 12.7794033 13.7794033 14 15 C14.66666667 16.66666667 15.33333333 18.33333333 16 20 C16.96756458 21.70936409 17.93628704 23.41815154 18.921875 25.1171875 C23.05875585 32.34174028 26.53611458 39.42216677 26 48 C24.515 47.505 24.515 47.505 23 47 C22.0859375 44.85546875 22.0859375 44.85546875 21.375 42.1875 C21.13523437 41.31480469 20.89546875 40.44210938 20.6484375 39.54296875 C20.09268217 37.36347042 19.53953034 35.18357091 19 33 C18.34 33 17.68 33 17 33 C17 32.34 17 31.68 17 31 C16.34 31 15.68 31 15 31 C14.79375 30.05125 14.5875 29.1025 14.375 28.125 C12.52141143 21.57743173 8.38697218 15.16586019 4 10 C3.01 9.67 2.02 9.34 1 9 C-0.75 7.1875 -0.75 7.1875 -2 5 C-1.75203633 2.83031791 -1.55766393 1.55766393 0 0 Z " fill="#757862" transform="translate(239,75)"/>
<path d="M0 0 C1.670625 0.061875 1.670625 0.061875 3.375 0.125 C4.5 3.875 4.5 3.875 3.375 6.125 C2.715 6.125 2.055 6.125 1.375 6.125 C1.106875 6.723125 0.83875 7.32125 0.5625 7.9375 C-1.84664741 12.37540311 -4.99155594 14.17895349 -9.625 16.125 C-12.5 16.3125 -12.5 16.3125 -14.625 16.125 C-13.875 8.5 -13.875 8.5 -11.625 5.125 C-9.64179982 4.09208324 -7.64152194 3.0912501 -5.625 2.125 C-3.625 0.125 -3.625 0.125 0 0 Z " fill="#6D7871" transform="translate(223.625,209.875)"/>
<path d="M0 0 C1.04005702 3.38018531 1.08004482 6.4780279 1 10 C0.01 10.33 -0.98 10.66 -2 11 C-1.979375 11.94875 -1.95875 12.8975 -1.9375 13.875 C-2 17 -2 17 -3 19 C-3.09870191 21.54185361 -3.13985877 24.05568689 -3.1328125 26.59765625 C-3.13424759 27.72185219 -3.13424759 27.72185219 -3.13571167 28.86875916 C-3.13639241 30.45327844 -3.13454551 32.03780052 -3.13037109 33.62231445 C-3.12501383 36.05621555 -3.13032347 38.48993273 -3.13671875 40.92382812 C-3.1360581 42.46093791 -3.1347772 43.99804758 -3.1328125 45.53515625 C-3.13483673 46.26742935 -3.13686096 46.99970245 -3.13894653 47.75416565 C-3.42819426 51.16464243 -3.42819426 51.16464243 -2 54 C-1.92820036 55.51928038 -1.91607993 57.04167482 -1.9375 58.5625 C-1.94652344 59.38878906 -1.95554687 60.21507812 -1.96484375 61.06640625 C-1.97644531 61.70449219 -1.98804688 62.34257812 -2 63 C-1.34 63 -0.68 63 0 63 C1.09658936 66.28976808 0.79953138 67.71303767 0 71 C0.66 71 1.32 71 2 71 C2.4640625 72.175625 2.4640625 72.175625 2.9375 73.375 C3.92875038 75.92330128 3.92875038 75.92330128 5 78 C4.71758117 80.3400417 4.38749213 82.67504723 4 85 C2.10544414 82.15816622 1.41134895 80.33988755 0.5625 77.09765625 C0.30726562 76.12376953 0.05203125 75.14988281 -0.2109375 74.14648438 C-0.47132812 73.12876953 -0.73171875 72.11105469 -1 71.0625 C-1.26039062 70.07958984 -1.52078125 69.09667969 -1.7890625 68.08398438 C-4.66084369 56.99571813 -6.39123561 46.28205395 -6.375 34.8125 C-6.37483887 33.73258789 -6.37467773 32.65267578 -6.37451172 31.54003906 C-6.21849282 20.48733169 -4.32431009 10.20693013 0 0 Z " fill="#A58436" transform="translate(51,139)"/>
<path d="M0 0 C2.76276177 0.52268466 5.3260876 1.10869587 8 2 C7.60011383 6.54607439 7.09642562 10.95300011 5.9375 15.375 C4.87480859 18.86002905 4.87480859 18.86002905 5 22 C2.36 22 -0.28 22 -3 22 C-3.625 19.6875 -3.625 19.6875 -4 17 C-3.01 15.515 -3.01 15.515 -2 14 C-1.60612212 11.67612053 -1.26513915 9.34206251 -1 7 C-0.01 7 0.98 7 2 7 C2 6.01 2 5.02 2 4 C1.34 4 0.68 4 0 4 C0.33 3.34 0.66 2.68 1 2 C0.67 1.67 0.34 1.34 0 1 C0 0.67 0 0.34 0 0 Z " fill="#C48A03" transform="translate(154,316)"/>
<path d="M0 0 C2.625 0.4375 2.625 0.4375 4.75 2.3125 C7.24822145 6.47620242 8.42537807 10.75715688 9.625 15.4375 C11.275 15.4375 12.925 15.4375 14.625 15.4375 C14.625 14.7775 14.625 14.1175 14.625 13.4375 C15.615 13.4375 16.605 13.4375 17.625 13.4375 C17.625 10.7975 17.625 8.1575 17.625 5.4375 C17.955 5.4375 18.285 5.4375 18.625 5.4375 C19.24486755 13.65074503 19.24486755 13.65074503 17 16.5 C14.07804074 17.65340497 11.73898457 17.64981713 8.625 17.4375 C8.295 16.1175 7.965 14.7975 7.625 13.4375 C6.965 13.4375 6.305 13.4375 5.625 13.4375 C5.625 11.4575 5.625 9.4775 5.625 7.4375 C4.965 7.4375 4.305 7.4375 3.625 7.4375 C2.965 8.7575 2.305 10.0775 1.625 11.4375 C0.635 11.4375 -0.355 11.4375 -1.375 11.4375 C-0.715 13.4175 -0.055 15.3975 0.625 17.4375 C-0.365 16.7775 -1.355 16.1175 -2.375 15.4375 C-2.375 14.7775 -2.375 14.1175 -2.375 13.4375 C-3.035 13.4375 -3.695 13.4375 -4.375 13.4375 C-4.42891993 11.64616022 -4.46775571 9.85436101 -4.5 8.0625 C-4.52320313 7.06476563 -4.54640625 6.06703125 -4.5703125 5.0390625 C-4.30831402 1.54924273 -3.4379337 0.63330358 0 0 Z " fill="#AF892B" transform="translate(228.375,114.5625)"/>
<path d="M0 0 C2.97 0 5.94 0 9 0 C9.33 2.31 9.66 4.62 10 7 C10.99 7 11.98 7 13 7 C12.85966889 8.97956441 12.7125877 10.95865141 12.5625 12.9375 C12.48128906 14.03964844 12.40007812 15.14179688 12.31640625 16.27734375 C12 19 12 19 11 20 C9.48071962 20.07179964 7.95832518 20.08392007 6.4375 20.0625 C5.61121094 20.05347656 4.78492187 20.04445313 3.93359375 20.03515625 C2.97646484 20.01775391 2.97646484 20.01775391 2 20 C2.33 18.02 2.66 16.04 3 14 C3.66 14 4.32 14 5 14 C4.505 12.63875 4.505 12.63875 4 11.25 C3 8 3 8 3 4 C3.66 4 4.32 4 5 4 C5 3.34 5 2.68 5 2 C3.35 1.67 1.7 1.34 0 1 C0 0.67 0 0.34 0 0 Z " fill="#C38B05" transform="translate(68,317)"/>
<path d="M0 0 C-7.30869779 4.00073268 -15.91714728 5.2384692 -24.13671875 5.7890625 C-26.0132138 5.80552147 -26.0132138 5.80552147 -27 7 C-29.52349846 7.1134478 -32.01855788 7.16418069 -34.54296875 7.16796875 C-35.30418533 7.17129715 -36.06540192 7.17462555 -36.84968567 7.17805481 C-38.46627192 7.18312954 -40.08286869 7.18546297 -41.69946289 7.18530273 C-44.15984747 7.18747558 -46.6197738 7.20558704 -49.08007812 7.22460938 C-50.65104014 7.22754601 -52.22200428 7.229529 -53.79296875 7.23046875 C-54.52444626 7.23765427 -55.25592377 7.24483978 -56.00956726 7.25224304 C-60.3866312 7.23292349 -63.93131166 6.61237801 -68 5 C-68 4.67 -68 4.34 -68 4 C-52.16 4 -36.32 4 -20 4 C-20 3.34 -20 2.68 -20 2 C-19.16855469 1.93941406 -18.33710938 1.87882812 -17.48046875 1.81640625 C-15.85044922 1.69072266 -15.85044922 1.69072266 -14.1875 1.5625 C-13.10855469 1.48128906 -12.02960938 1.40007812 -10.91796875 1.31640625 C-7.08298834 0.900565 -3.91560824 -0.10582725 0 0 Z " fill="#9E863D" transform="translate(196,271)"/>
<path d="M0 0 C0.99 0.66 1.98 1.32 3 2 C3 3.32 3 4.64 3 6 C3.66 6 4.32 6 5 6 C7.77569663 18.14367275 8.85584704 29.65429637 3 41 C2.34 41 1.68 41 1 41 C0.67 42.98 0.34 44.96 0 47 C-0.66 47 -1.32 47 -2 47 C-2.33 52.28 -2.66 57.56 -3 63 C-1.35 63 0.3 63 2 63 C2 62.34 2 61.68 2 61 C3.98 60.34 5.96 59.68 8 59 C5.10927016 62.50391496 3.8692857 63.91307143 -0.75 64.375 C-4 64 -4 64 -5 63 C-5.87825505 55.06690927 -4.37232663 49.11046497 -1 42 C-0.26896309 40.33415282 0.46029018 38.66752142 1.1875 37 C2.09322287 34.97926372 3.00967227 32.98065546 4 31 C4.08471364 29.18658158 4.10721083 27.37005839 4.09765625 25.5546875 C4.09443359 24.47832031 4.09121094 23.40195313 4.08789062 22.29296875 C4.07532227 20.60107422 4.07532227 20.60107422 4.0625 18.875 C4.05798828 17.73933594 4.05347656 16.60367188 4.04882812 15.43359375 C4.03701615 12.62234362 4.02054507 9.8111977 4 7 C3.34 7 2.68 7 2 7 C1.34 4.69 0.68 2.38 0 0 Z " fill="#988443" transform="translate(190,153)"/>
<path d="M0 0 C0.33 0.99 0.66 1.98 1 3 C1.66 3 2.32 3 3 3 C2.34 4.98 1.68 6.96 1 9 C2.32 8.67 3.64 8.34 5 8 C5 8.66 5 9.32 5 10 C2.36 10.33 -0.28 10.66 -3 11 C-3 11.66 -3 12.32 -3 13 C-0.69 13 1.62 13 4 13 C4 14.98 4 16.96 4 19 C4.66 19.33 5.32 19.66 6 20 C4.02 20 2.04 20 0 20 C0.66 18.02 1.32 16.04 2 14 C0.68 14 -0.64 14 -2 14 C-2 15.98 -2 17.96 -2 20 C-4.97 20 -7.94 20 -11 20 C-11 16.04340951 -9.74043686 15.74043686 -7 13 C-5.68517959 10.78725345 -4.43747929 8.53361401 -3.25 6.25 C-2.93417969 5.64800781 -2.61835938 5.04601562 -2.29296875 4.42578125 C-1.52202105 2.953972 -0.76007676 1.47745258 0 0 Z " fill="#BB891C" transform="translate(243,318)"/>
<path d="M0 0 C0.33 0 0.66 0 1 0 C1.33 9.24 1.66 18.48 2 28 C3.50156874 24.99686252 3.09281204 22.20932478 3.0625 18.875 C3.05347656 17.59367187 3.04445313 16.31234375 3.03515625 14.9921875 C3.02355469 14.00476563 3.01195312 13.01734375 3 12 C3.33 12 3.66 12 4 12 C4.08564209 12.77601563 4.17128418 13.55203125 4.25952148 14.3515625 C4.65159155 17.90110706 5.04453868 21.45055401 5.4375 25 C5.57220703 26.22074219 5.70691406 27.44148438 5.84570312 28.69921875 C6.52232778 34.80534368 7.21549433 40.90675208 8 47 C6 44 6 44 6 40 C5.34 39.67 4.68 39.34 4 39 C4 39.66 4 40.32 4 41 C4 43 4 45 4 47 C-3.06738339 34.28462404 -1.6141245 14.05529948 0 0 Z " fill="#626C67" transform="translate(32,148)"/>
<path d="M0 0 C0.33 0 0.66 0 1 0 C1 2.64 1 5.28 1 8 C3.48858887 7.57093295 4.74896408 7.25103592 6.5625 5.4375 C7.036875 4.963125 7.51125 4.48875 8 4 C8.99 4 9.98 4 11 4 C10.67 4.99 10.34 5.98 10 7 C9.34 7 8.68 7 8 7 C8 9.97 8 12.94 8 16 C3.71 16 -0.58 16 -5 16 C-4.54625 14.659375 -4.0925 13.31875 -3.625 11.9375 C-2.30503052 7.98384733 -1.11106099 4.01691279 0 0 Z " fill="#BF8B0D" transform="translate(208,322)"/>
<path d="M0 0 C3.1763469 3.51309427 4.12713882 7.37774832 5.1875 11.875 C5.36474609 12.56980469 5.54199219 13.26460937 5.72460938 13.98046875 C6.72208639 18.07050963 7.1927866 21.75869478 7 26 C6.67 26 6.34 26 6 26 C5.67 27.98 5.34 29.96 5 32 C4.34 32 3.68 32 3 32 C1.68 24.74 0.36 17.48 -1 10 C-0.01 10.33 0.98 10.66 2 11 C1.67 9.9275 1.34 8.855 1 7.75 C0 4 0 4 0 0 Z " fill="#857D54" transform="translate(263,112)"/>
<path d="M0 0 C0 4.3153922 -2.64721449 6.13611683 -5.5 9.0625 C-9.40188991 12.49017655 -9.40188991 12.49017655 -11 17 C-12.60875 17.2165625 -12.60875 17.2165625 -14.25 17.4375 C-16.91662949 17.83749442 -19.41399729 18.27591924 -22 19 C-22 19.66 -22 20.32 -22 21 C-22.66 21 -23.32 21 -24 21 C-24 21.66 -24 22.32 -24 23 C-25.4117783 23.53394179 -26.82970244 24.05165104 -28.25 24.5625 C-29.03890625 24.85253906 -29.8278125 25.14257812 -30.640625 25.44140625 C-33.19103452 26.04522837 -34.55322229 25.8473932 -37 25 C-33.27034861 22.96564469 -31.33094958 22 -27 22 C-26.67 21.01 -26.34 20.02 -26 19 C-23.78515625 17.61328125 -23.78515625 17.61328125 -21.0625 16.3125 C-20.16660156 15.87550781 -19.27070313 15.43851562 -18.34765625 14.98828125 C-16 14 -16 14 -14 14 C-14 13.34 -14 12.68 -14 12 C-12.28048026 10.46148234 -10.49812503 8.99268241 -8.6875 7.5625 C-4.15615016 3.98901832 -4.15615016 3.98901832 0 0 Z " fill="#A88933" transform="translate(242,246)"/>
<path d="M0 0 C1 1 1 1 1.0625 3.5625 C1.041875 4.366875 1.02125 5.17125 1 6 C0.45730469 6.18175781 -0.08539063 6.36351562 -0.64453125 6.55078125 C-1.71767578 6.92783203 -1.71767578 6.92783203 -2.8125 7.3125 C-3.87404297 7.67794922 -3.87404297 7.67794922 -4.95703125 8.05078125 C-7.14472373 9.06724258 -8.40896718 10.20820594 -10 12 C-10 10.68 -10 9.36 -10 8 C-10.99 8.33 -11.98 8.66 -13 9 C-13.33 8.01 -13.66 7.02 -14 6 C-13.01 6 -12.02 6 -11 6 C-9.61876037 4.03277992 -8.28511874 2.03131672 -7 0 C-4.31633121 -1.3418344 -2.84719317 -0.73004953 0 0 Z " fill="#BC8B13" transform="translate(91,316)"/>
<path d="M0 0 C1.33554084 6.43487859 1.33554084 6.43487859 -0.1875 9 C-2 10 -2 10 -3.875 9.875 C-6.42566574 8.82472587 -8.67809909 7.48343669 -11 6 C-10.875 4.1875 -10.875 4.1875 -10 2 C-6.45371784 -0.28538184 -4.05371308 -1.71503246 0 0 Z " fill="#6A7370" transform="translate(32,267)"/>
<path d="M0 0 C4.47997691 -0.02504287 8.95991485 -0.04301921 13.43994141 -0.05493164 C14.95850333 -0.05990685 16.4770606 -0.06668941 17.99560547 -0.07543945 C27.05422701 -0.1262634 35.9789916 0.03221644 45 1 C45 1.33 45 1.66 45 2 C39.54602545 3.13059174 34.23169975 3.19133615 28.6875 3.1875 C27.24383057 3.1884668 27.24383057 3.1884668 25.77099609 3.18945312 C17.07633985 3.12622971 8.5920781 2.27627685 0 1 C0 0.67 0 0.34 0 0 Z " fill="#7F7B5A" transform="translate(127,279)"/>
<path d="M0 0 C4.07206936 2.03603468 5.37018652 7.94441762 7 12 C8.42174225 16.30852856 9.28520872 20.4366605 9 25 C8.01 24.67 7.02 24.34 6 24 C5.0859375 21.85546875 5.0859375 21.85546875 4.375 19.1875 C4.13523437 18.31480469 3.89546875 17.44210938 3.6484375 16.54296875 C3.09268217 14.36347042 2.53953034 12.18357091 2 10 C1.34 10 0.68 10 0 10 C0 9.34 0 8.68 0 8 C-0.66 8 -1.32 8 -2 8 C-1.47731534 5.23723823 -0.89130413 2.6739124 0 0 Z " fill="#7F7B5B" transform="translate(256,98)"/>
<path d="M0 0 C0.5625 1.9375 0.5625 1.9375 1 4 C0.67 4.33 0.34 4.66 0 5 C0.99 5.66 1.98 6.32 3 7 C2.01 8.485 2.01 8.485 1 10 C1 10.33 1 10.66 1 11 C1.66 11.33 2.32 11.66 3 12 C2.67 13.65 2.34 15.3 2 17 C-0.64 17 -3.28 17 -6 17 C-6 15.35 -6 13.7 -6 12 C-5.34 12 -4.68 12 -4 12 C-3.96261719 11.30132812 -3.92523438 10.60265625 -3.88671875 9.8828125 C-3.78810547 8.51769531 -3.78810547 8.51769531 -3.6875 7.125 C-3.62949219 6.22007812 -3.57148438 5.31515625 -3.51171875 4.3828125 C-3 2 -3 2 0 0 Z " fill="#C48902" transform="translate(297,320)"/>
<path d="M0 0 C-0.165 0.825 -0.33 1.65 -0.5 2.5 C0.27294847 7.91063926 4.02145679 10.50101334 8 14 C7.67 14.66 7.34 15.32 7 16 C6.4225 15.38125 5.845 14.7625 5.25 14.125 C3.19750179 12.18652947 1.56633418 11.09985751 -1 10 C-1 9.01 -1 8.02 -1 7 C-2.65 7.33 -4.3 7.66 -6 8 C-6.66 9.98 -7.32 11.96 -8 14 C-8.66 14 -9.32 14 -10 14 C-9.29445932 10.33118845 -7.72264494 7.29549466 -6 4 C-8.31 4 -10.62 4 -13 4 C-8.93662608 1.29108405 -4.89951609 0 0 0 Z " fill="#B0882C" transform="translate(140,80)"/>
<path d="M0 0 C3.21852831 0.63065757 5.50801069 1.78020695 8.25 3.5625 C8.95640625 4.01753906 9.6628125 4.47257812 10.390625 4.94140625 C11.18726563 5.46541016 11.18726563 5.46541016 12 6 C11.01 6.495 11.01 6.495 10 7 C10.65349633 14.55038422 10.65349633 14.55038422 12 22 C8.74840005 17.97420958 6.72858556 13.51788658 4.5 8.875 C3.10745023 6.01678408 3.10745023 6.01678408 1.3125 3.75 C0 2 0 2 0 0 Z " fill="#AD882E" transform="translate(252,90)"/>
<path d="M0 0 C1.32 0 2.64 0 4 0 C4.12375 0.94875 4.2475 1.8975 4.375 2.875 C4.71687177 6.08667191 4.71687177 6.08667191 7 8 C6.34 9.65 5.68 11.3 5 13 C4.34 13 3.68 13 3 13 C2.34 14.32 1.68 15.64 1 17 C-1.44442567 14.55557433 -1.41280116 13.4394472 -1.75 10.0625 C-1.84796875 9.18722656 -1.9459375 8.31195313 -2.046875 7.41015625 C-2 5 -2 5 0 2 C0 1.34 0 0.68 0 0 Z M1 6 C2.485 6.99 2.485 6.99 4 8 C4 7.34 4 6.68 4 6 C3.01 6 2.02 6 1 6 Z " fill="#6D7974" transform="translate(190,351)"/>
<path d="M0 0 C0.99 0.495 0.99 0.495 2 1 C3.17169312 4.98375661 3.08089427 8.87439224 3 13 C3.598125 12.505 4.19625 12.01 4.8125 11.5 C7 10 7 10 10 10 C10 9.34 10 8.68 10 8 C11.32 7.67 12.64 7.34 14 7 C12.54955729 11.10958767 10.48889248 14.43258745 8 18 C6.35 17.67 4.7 17.34 3 17 C2.49622232 14.73000175 1.99709981 12.45896997 1.5 10.1875 C1.08234375 8.29064453 1.08234375 8.29064453 0.65625 6.35546875 C0 3 0 3 0 0 Z " fill="#C1890D" transform="translate(266,320)"/>
<path d="M0 0 C1.32 0 2.64 0 4 0 C5.41755562 3.30762979 6.72958103 6.39441371 7 10 C5.48948512 13.17208125 3.70460249 15.7461646 1 18 C0.01 18.33 -0.98 18.66 -2 19 C-2.73323796 21.01508358 -2.73323796 21.01508358 -3 23 C-2.01 23.33 -1.02 23.66 0 24 C1.6875 27.0625 1.6875 27.0625 3 30 C1.0625 29.1875 1.0625 29.1875 -1 28 C-1.33 27.01 -1.66 26.02 -2 25 C-2.66 25 -3.32 25 -4 25 C-4.3669579 18.51707705 -4.3669579 18.51707705 -2.625 16.0625 C-1 15 -1 15 1 15 C2.65980716 12.01234712 3.83626891 9.43835286 4 6 C2.16682624 2.70751892 2.16682624 2.70751892 0 0 Z " fill="#797862" transform="translate(145,91)"/>
<path d="M0 0 C3.96 0 7.92 0 12 0 C11.20197185 3.1921126 10.25768711 5.98155093 9 9 C8.06576355 5.98968256 7.95550089 5.13349732 9 2 C6.69 2 4.38 2 2 2 C2.061875 2.99 2.12375 3.98 2.1875 5 C2.19669363 9.50487709 0.83436565 12.90795356 -1 17 C-1.66 17.33 -2.32 17.66 -3 18 C-2.194773 11.96079748 -1.10941445 5.99083802 0 0 Z " fill="#B88C25" transform="translate(125,315)"/>
<path d="M0 0 C1.670625 0.061875 1.670625 0.061875 3.375 0.125 C4.5 3.875 4.5 3.875 3.375 6.125 C2.715 6.125 2.055 6.125 1.375 6.125 C1.1275 6.723125 0.88 7.32125 0.625 7.9375 C-0.78870012 10.41147521 -2.27555383 11.55870255 -4.625 13.125 C-3.47326645 10.65699953 -2.57716435 9.07716435 -0.625 7.125 C0.0175235 5.05625966 0.0175235 5.05625966 0.375 3.125 C-1.171875 4.0840625 -1.171875 4.0840625 -2.75 5.0625 C-6.01109658 6.94211371 -8.84546944 7.75626531 -12.625 8.125 C-11.625 5.125 -11.625 5.125 -8.6875 3.5625 C-7.676875 3.088125 -6.66625 2.61375 -5.625 2.125 C-3.625 0.125 -3.625 0.125 0 0 Z " fill="#8C7F4C" transform="translate(223.625,209.875)"/>
<path d="M0 0 C0.33 0.66 0.66 1.32 1 2 C1.66 2 2.32 2 3 2 C3.0816082 4.37570543 3.14077222 6.74855841 3.1875 9.125 C3.22520508 10.12273437 3.22520508 10.12273437 3.26367188 11.140625 C3.35646735 17.45071704 1.58143549 21.22570652 -2.5625 25.875 C-5 28 -5 28 -7 28 C-7.268125 28.61875 -7.53625 29.2375 -7.8125 29.875 C-9 32 -9 32 -12 34 C-10.03181992 29.347938 -6.90077011 25.31997924 -2.75 22.4375 C-0.31400086 20.4365007 -0.420404 19.12181187 0 16 C0.068089 13.21924515 0.09478336 10.46635261 0.0625 7.6875 C0.05798828 6.94693359 0.05347656 6.20636719 0.04882812 5.44335938 C0.03712175 3.62887101 0.01918898 1.81442466 0 0 Z " fill="#A0873B" transform="translate(240,144)"/>
<path d="M0 0 C2.475 0.495 2.475 0.495 5 1 C4.125 6.75 4.125 6.75 3 9 C-3.93 9 -10.86 9 -18 9 C-17.67 8.01 -17.34 7.02 -17 6 C-16.67 6.66 -16.34 7.32 -16 8 C-11.38 7.67 -6.76 7.34 -2 7 C-2 6.01 -2 5.02 -2 4 C-1 1.8125 -1 1.8125 0 0 Z " fill="#BD8913" transform="translate(332,329)"/>
<path d="M0 0 C2.73083902 -0.13548815 5.45491807 -0.23429855 8.1875 -0.3125 C8.95642578 -0.35439453 9.72535156 -0.39628906 10.51757812 -0.43945312 C14.96628173 -0.53491887 16.47554876 -0.43312555 20.05078125 2.51953125 C20.69402344 3.33808594 21.33726562 4.15664063 22 5 C21.01 5.495 21.01 5.495 20 6 C20 6.99 20 7.98 20 9 C19.01 9 18.02 9 17 9 C17 9.66 17 10.32 17 11 C15 10 15 10 14 7 C14.99 6.67 15.98 6.34 17 6 C17.33 4.68 17.66 3.36 18 2 C12.72 2 7.44 2 2 2 C1.34 3.32 0.68 4.64 0 6 C0 4.02 0 2.04 0 0 Z " fill="#BB901D" transform="translate(209,315)"/>
<path d="M0 0 C6.27 0 12.54 0 19 0 C20.125 5.625 20.125 5.625 18 9 C17.01 9 16.02 9 15 9 C15 8.01 15 7.02 15 6 C15.66 6 16.32 6 17 6 C17.33 4.68 17.66 3.36 18 2 C12.39 1.67 6.78 1.34 1 1 C0.855625 2.52625 0.71125 4.0525 0.5625 5.625 C0.18226383 9.44908948 -0.30338168 13.21835771 -1 17 C-1.66 17 -2.32 17 -3 17 C-2.25290691 11.2722863 -1.16268651 5.65840766 0 0 Z " fill="#B58F34" transform="translate(294,315)"/>
<path d="M0 0 C-1.32 0.33 -2.64 0.66 -4 1 C-4 1.99 -4 2.98 -4 4 C-5.5778125 4.37125 -5.5778125 4.37125 -7.1875 4.75 C-10.84635964 5.78802658 -13.11665154 7.49603949 -16 10 C-18.92509543 11.85493856 -21.89846479 13.46562528 -25 15 C-20.47326178 9.24623383 -8.26476595 -4.13238297 0 0 Z " fill="#A98833" transform="translate(93,97)"/>
<path d="M0 0 C0 0.66 0 1.32 0 2 C1.98 1.67 3.96 1.34 6 1 C6 1.99 6 2.98 6 4 C5 5 5 5 1.83984375 5.09765625 C-0.09181641 5.08025391 -0.09181641 5.08025391 -2.0625 5.0625 C-3.35285156 5.05347656 -4.64320313 5.04445313 -5.97265625 5.03515625 C-6.97167969 5.02355469 -7.97070312 5.01195312 -9 5 C-9 4.34 -9 3.68 -9 3 C-8.34 3 -7.68 3 -7 3 C-6.67 2.01 -6.34 1.02 -6 0 C-3.50907189 -1.24546405 -2.58919267 -0.7767578 0 0 Z " fill="#C48804" transform="translate(325,332)"/>
<path d="M0 0 C3.76923077 1.50769231 3.76923077 1.50769231 4.9375 4 C6.39998474 6.75291245 8.15176838 6.93191314 11 8 C11.99 9.485 11.99 9.485 13 11 C11.02 10.34 9.04 9.68 7 9 C7.350625 9.763125 7.70125 10.52625 8.0625 11.3125 C9 14 9 14 8 17 C6.66161267 14.54429825 5.32913768 12.08570084 4 9.625 C3.6184375 8.92632812 3.236875 8.22765625 2.84375 7.5078125 C0 2.2265625 0 2.2265625 0 0 Z " fill="#AA8932" transform="translate(64,248)"/>
<path d="M0 0 C2.7824349 1.39121745 3.55210065 3.30164212 5 6 C5 6.66 5 7.32 5 8 C5.66 8 6.32 8 7 8 C7 8.99 7 9.98 7 11 C7.66 11 8.32 11 9 11 C11.11161731 20.41002278 11.11161731 20.41002278 12 25 C8.28898402 22.52598935 8.26316934 21.18424845 7 17 C5.14137677 12.43792481 3.0556927 8.05748159 0.76953125 3.69921875 C0 2 0 2 0 0 Z " fill="#9A8342" transform="translate(102,191)"/>
<path d="M0 0 C0.98120464 3.05263664 0.98120464 4.94736336 0 8 C-0.66 8 -1.32 8 -2 8 C-2 11.96 -2 15.92 -2 20 C-0.741875 19.34 0.51625 18.68 1.8125 18 C4.58282374 16.54671542 5.80389448 16 9 16 C4.375 20 4.375 20 1 20 C1 20.66 1 21.32 1 22 C-0.65 22 -2.3 22 -4 22 C-3.67 16.72 -3.34 11.44 -3 6 C-2.34 6 -1.68 6 -1 6 C-0.67 4.02 -0.34 2.04 0 0 Z " fill="#7B795C" transform="translate(191,194)"/>
<path d="M0 0 C2.53054337 2.53054337 2.25683229 3.43548882 2.265625 6.9375 C2.26949219 8.40316406 2.26949219 8.40316406 2.2734375 9.8984375 C2.26570313 10.92195312 2.25796875 11.94546875 2.25 13 C2.25773437 14.02351562 2.26546875 15.04703125 2.2734375 16.1015625 C2.27085938 17.07867187 2.26828125 18.05578125 2.265625 19.0625 C2.26336914 19.96097656 2.26111328 20.85945313 2.25878906 21.78515625 C2 24 2 24 0 26 C-1.71567792 24.28432208 -1.13015825 22.02627265 -1.1328125 19.6875 C-1.13410156 18.61242187 -1.13539062 17.53734375 -1.13671875 16.4296875 C-1.13091797 14.73199219 -1.13091797 14.73199219 -1.125 13 C-1.12886719 11.86820313 -1.13273437 10.73640625 -1.13671875 9.5703125 C-1.13542969 8.49523437 -1.13414063 7.42015625 -1.1328125 6.3125 C-1.13168457 5.31863281 -1.13055664 4.32476562 -1.12939453 3.30078125 C-1 1 -1 1 0 0 Z " fill="#6C7A72" transform="translate(34,151)"/>
<path d="M0 0 C2.16874252 0.50603992 3.99967627 0.99983813 6 2 C6 2.66 6 3.32 6 4 C8.475 4.99 8.475 4.99 11 6 C10.01 7.485 10.01 7.485 9 9 C5.625 8.75 5.625 8.75 2 8 C-0.23892859 5.17700309 0 3.7208921 0 0 Z " fill="#B38921" transform="translate(71,257)"/>
<path d="M0 0 C3.63 0 7.26 0 11 0 C11.33 0.99 11.66 1.98 12 3 C11.01 4.485 11.01 4.485 10 6 C10 4.68 10 3.36 10 2 C8.02 2 6.04 2 4 2 C3.67 5.63 3.34 9.26 3 13 C2.67 13 2.34 13 2 13 C1.66127487 11.58461283 1.32925376 10.16762037 1 8.75 C0.814375 7.96109375 0.62875 7.1721875 0.4375 6.359375 C0 4 0 4 0 0 Z " fill="#B88B27" transform="translate(96,315)"/>
<path d="M0 0 C4.51154535 0.57289465 8.46868075 0.17239179 12.9375 -0.5 C12.6075 0.16 12.2775 0.82 11.9375 1.5 C2.8762133 3.54686925 -5.87079901 3.76664036 -15.0625 2.5 C-14.7325 1.84 -14.4025 1.18 -14.0625 0.5 C-9.43459499 -0.53744459 -4.68148037 -0.72676207 0 0 Z " fill="#817C56" transform="translate(184.0625,275.5)"/>
<path d="M0 0 C3.20356629 0.37250771 5.49822108 0.65592303 8.1875 2.5 C14.07485974 5.6399252 21.60444688 5.55567508 28 4 C26.9296875 5.48046875 26.9296875 5.48046875 25 7 C21.8203125 7.36328125 21.8203125 7.36328125 18.125 7.3125 C16.91070312 7.30863281 15.69640625 7.30476563 14.4453125 7.30078125 C11.19455782 7.01698521 8.9235016 6.39505495 6 5 C6 4.34 6 3.68 6 3 C5.38125 2.87625 4.7625 2.7525 4.125 2.625 C2 2 2 2 0 0 Z " fill="#9D8540" transform="translate(112,253)"/>
<path d="M0 0 C2.95183101 2.95183101 3.08663988 5.95511947 4 10 C5.65 10 7.3 10 9 10 C9 9.34 9 8.68 9 8 C9.99 8 10.98 8 12 8 C12 5.36 12 2.72 12 0 C12.33 0 12.66 0 13 0 C13.61986755 8.21324503 13.61986755 8.21324503 11.375 11.0625 C8.45304074 12.21590497 6.11398457 12.21231713 3 12 C2.67 10.68 2.34 9.36 2 8 C1.34 8 0.68 8 0 8 C0 5.36 0 2.72 0 0 Z " fill="#A68837" transform="translate(234,120)"/>
<path d="M0 0 C0.99 0 1.98 0 3 0 C3.33 0.66 3.66 1.32 4 2 C5.32 2 6.64 2 8 2 C8.01417969 2.59167969 8.02835938 3.18335937 8.04296875 3.79296875 C8.40020975 9.71158317 9.47236016 11.93673347 14 16 C14 17.32 14 18.64 14 20 C13.34 20 12.68 20 12 20 C11.5978125 18.8553125 11.5978125 18.8553125 11.1875 17.6875 C10.20337255 15.02287549 10.20337255 15.02287549 8.5 13.5 C7 12 7 12 6.125 9.6875 C4.64864485 6.16065159 2.49566912 3.88972214 0 1 C0 0.67 0 0.34 0 0 Z " fill="#A58637" transform="translate(230,92)"/>
<path d="M0 0 C2.64 0 5.28 0 8 0 C8 1.98 8 3.96 8 6 C6.68 6.33 5.36 6.66 4 7 C4 7.66 4 8.32 4 9 C3.34 9 2.68 9 2 9 C1.34 6.03 0.68 3.06 0 0 Z " fill="#C58903" transform="translate(266,317)"/>
<path d="M0 0 C-0.556875 0.268125 -1.11375 0.53625 -1.6875 0.8125 C-2.8321875 1.4003125 -2.8321875 1.4003125 -4 2 C-5.29744141 2.49306641 -5.29744141 2.49306641 -6.62109375 2.99609375 C-9.13826777 4.70377885 -9.13826777 4.70377885 -9.41967773 6.91137695 C-9.53119793 9.37453007 -9.48339677 11.78677689 -9.375 14.25 C-9.36082031 15.08402344 -9.34664062 15.91804687 -9.33203125 16.77734375 C-9.21865625 21.59200215 -8.78313601 26.24983079 -8 31 C-11.58682781 25.61975829 -11.24939946 20.81786688 -11.3125 14.5625 C-11.34150391 13.60794922 -11.37050781 12.65339844 -11.40039062 11.66992188 C-11.46391395 4.68724233 -11.46391395 4.68724233 -9.21484375 1.35546875 C-6.09626793 -0.55307765 -3.57648611 -0.27511432 0 0 Z " fill="#A48839" transform="translate(64,159)"/>
<path d="M0 0 C5.05255964 0.63156995 9.29593201 2.13459373 14 4 C13.01 4.33 12.02 4.66 11 5 C11.66 6.32 12.32 7.64 13 9 C11.53932801 8.54917531 10.08151968 8.08906463 8.625 7.625 C7.81289062 7.36976562 7.00078125 7.11453125 6.1640625 6.8515625 C4 6 4 6 2 4 C2.66 4 3.32 4 4 4 C3.04134491 1.66924071 3.04134491 1.66924071 0 0 Z " fill="#656D69" transform="translate(188,46)"/>
<path d="M0 0 C3.63 0 7.26 0 11 0 C12.231394 3.69418201 11.64432764 6.2056261 11 10 C9.35 9.67 7.7 9.34 6 9 C6.99 8.67 7.98 8.34 9 8 C9 6.02 9 4.04 9 2 C6.36 2 3.72 2 1 2 C0.67 2.66 0.34 3.32 0 4 C0 2.68 0 1.36 0 0 Z " fill="#BA8D27" transform="translate(265,315)"/>
<path d="M0 0 C1.37478516 0.01740234 1.37478516 0.01740234 2.77734375 0.03515625 C3.69644531 0.04417969 4.61554687 0.05320312 5.5625 0.0625 C6.27277344 0.07410156 6.98304687 0.08570313 7.71484375 0.09765625 C7.375 1.98828125 7.375 1.98828125 6.71484375 4.09765625 C4.15234375 5.84765625 4.15234375 5.84765625 1.71484375 7.09765625 C1.05484375 5.77765625 0.39484375 4.45765625 -0.28515625 3.09765625 C-1.27515625 4.08765625 -2.26515625 5.07765625 -3.28515625 6.09765625 C-3.32787725 4.4315372 -3.32579457 2.7638274 -3.28515625 1.09765625 C-2.28515625 0.09765625 -2.28515625 0.09765625 0 0 Z " fill="#BB9122" transform="translate(53.28515625,314.90234375)"/>
<path d="M0 0 C1.32 0.33 2.64 0.66 4 1 C1.41909233 2.31746333 -1.16450458 3.62909617 -3.75 4.9375 C-4.47960937 5.31068359 -5.20921875 5.68386719 -5.9609375 6.06835938 C-6.66992188 6.42607422 -7.37890625 6.78378906 -8.109375 7.15234375 C-9.08342285 7.6472229 -9.08342285 7.6472229 -10.07714844 8.15209961 C-12.03293079 9.01452116 -13.91540694 9.54374179 -16 10 C-14.6875 7.0625 -14.6875 7.0625 -13 4 C-12.01 3.67 -11.02 3.34 -10 3 C-10 3.99 -10 4.98 -10 6 C-8.68 5.67 -7.36 5.34 -6 5 C-6 4.34 -6 3.68 -6 3 C-4.02 2.67 -2.04 2.34 0 2 C0 1.34 0 0.68 0 0 Z " fill="#AA8934" transform="translate(236,287)"/>
<path d="M0 0 C1.65322266 0.01740234 1.65322266 0.01740234 3.33984375 0.03515625 C4.99693359 0.04869141 4.99693359 0.04869141 6.6875 0.0625 C7.54214844 0.07410156 8.39679688 0.08570313 9.27734375 0.09765625 C10.27734375 3.09765625 10.27734375 3.09765625 9.33984375 5.28515625 C8.98921875 5.88328125 8.63859375 6.48140625 8.27734375 7.09765625 C8.27734375 5.44765625 8.27734375 3.79765625 8.27734375 2.09765625 C5.63734375 2.42765625 2.99734375 2.75765625 0.27734375 3.09765625 C0.60734375 5.40765625 0.93734375 7.71765625 1.27734375 10.09765625 C-0.66534466 7.18362363 -2.18660929 4.23957049 -3.72265625 1.09765625 C-2.72265625 0.09765625 -2.72265625 0.09765625 0 0 Z " fill="#B68D30" transform="translate(68.72265625,314.90234375)"/>
<path d="M0 0 C-0.99 0.66 -1.98 1.32 -3 2 C-2.01 2.66 -1.02 3.32 0 4 C-0.99 4 -1.98 4 -3 4 C-3.33 4.99 -3.66 5.98 -4 7 C-6.31 7.33 -8.62 7.66 -11 8 C-9.68 7.01 -8.36 6.02 -7 5 C-8.65 4.67 -10.3 4.34 -12 4 C-8.59914501 0.59914501 -4.67235329 -1.5574511 0 0 Z " fill="#8A7F50" transform="translate(208,267)"/>
<path d="M0 0 C1.9375 0.8125 1.9375 0.8125 3.375 2.3125 C5.42263623 4.27823078 7.17497349 4.43918561 9.9375 4.8125 C9.9375 5.4725 9.9375 6.1325 9.9375 6.8125 C12.4125 7.3075 12.4125 7.3075 14.9375 7.8125 C11.38603211 9.08612986 9.53742911 8.54569753 6.125 7.0625 C5.25488281 6.69125 4.38476562 6.32 3.48828125 5.9375 C2.22564453 5.380625 2.22564453 5.380625 0.9375 4.8125 C-0.43723477 4.22854187 -1.81219502 3.64511392 -3.1875 3.0625 C-4.13625 2.65 -5.085 2.2375 -6.0625 1.8125 C-3.8753711 0.48460031 -2.58529544 -0.23502686 0 0 Z " fill="#A58837" transform="translate(102.0625,264.1875)"/>
<path d="M0 0 C0.33 0.66 0.66 1.32 1 2 C-0.98 2.99 -0.98 2.99 -3 4 C-3.02685095 6.47923801 -3.04676547 8.9581884 -3.0625 11.4375 C-3.07087891 12.14455078 -3.07925781 12.85160156 -3.08789062 13.58007812 C-3.09653588 15.38693559 -3.05220011 17.19387603 -3 19 C-2.67 19.33 -2.34 19.66 -2 20 C-1.92773498 21.85287502 -1.9161878 23.70833878 -1.9375 25.5625 C-1.94652344 26.57441406 -1.95554688 27.58632812 -1.96484375 28.62890625 C-1.97644531 29.41136719 -1.98804688 30.19382813 -2 31 C-2.33 31 -2.66 31 -3 31 C-4.64926094 24.66431975 -5.39107272 18.66608791 -5.4375 12.125 C-5.47037109 11.28453125 -5.50324219 10.4440625 -5.53710938 9.578125 C-5.55737615 7.27139766 -5.53029476 5.24574882 -5 3 C-2.47265625 0.9296875 -2.47265625 0.9296875 0 0 Z " fill="#7E7A56" transform="translate(59,161)"/>
<path d="M0 0 C3.22131512 1.30908763 5.82177171 2.71388895 8.0234375 5.43359375 C7.6934375 6.09359375 7.3634375 6.75359375 7.0234375 7.43359375 C6.5903125 6.79421875 6.1571875 6.15484375 5.7109375 5.49609375 C-0.0337796 1.08735737 -8.97525993 2.3014937 -15.9765625 2.43359375 C-10.55475475 -0.27731013 -6.06280207 -1.73736423 0 0 Z " fill="#7B7A5D" transform="translate(75.9765625,158.56640625)"/>
<path d="M0 0 C0.66 0.99 1.32 1.98 2 3 C2.99 2.01 3.98 1.02 5 0 C4.34 4.29 3.68 8.58 3 13 C2.34 12.34 1.68 11.68 1 11 C1.33 10.01 1.66 9.02 2 8 C-0.51083114 9.25541557 -0.87125446 10.50063488 -2 13 C-1.85851011 11.3954444 -1.71164314 9.79136233 -1.5625 8.1875 C-1.48128906 7.29417969 -1.40007813 6.40085938 -1.31640625 5.48046875 C-1 3 -1 3 0 0 Z " fill="#626C69" transform="translate(35,133)"/>
<path d="M0 0 C-0.66 1.65 -1.32 3.3 -2 5 C-3.31611677 4.04663979 -4.62778961 3.08714226 -5.9375 2.125 C-6.66839844 1.59132813 -7.39929688 1.05765625 -8.15234375 0.5078125 C-10 -1 -10 -1 -11 -3 C-6.06995512 -4.74001584 -3.98367078 -3.05723572 0 0 Z " fill="#626E67" transform="translate(239,74)"/>
<path d="M0 0 C0.33 0 0.66 0 1 0 C1 2.64 1 5.28 1 8 C0.34 8 -0.32 8 -1 8 C-1 9.32 -1 10.64 -1 12 C-0.34 12 0.32 12 1 12 C1 12.66 1 13.32 1 14 C2.32 14.66 3.64 15.32 5 16 C1.7 16 -1.6 16 -5 16 C-4.54625 14.659375 -4.0925 13.31875 -3.625 11.9375 C-2.30503052 7.98384733 -1.11106099 4.01691279 0 0 Z " fill="#BA881B" transform="translate(208,322)"/>
<path d="M0 0 C0.33 0 0.66 0 1 0 C0.60011383 4.54607439 0.09642562 8.95300011 -1.0625 13.375 C-2.12519141 16.86002905 -2.12519141 16.86002905 -2 20 C-2.99 19.67 -3.98 19.34 -5 19 C-4.34 16.36 -3.68 13.72 -3 11 C-3.99 10.67 -4.98 10.34 -6 10 C-4.71937515 8.2925002 -3.38232443 6.62626404 -2 5 C-1.34 5 -0.68 5 0 5 C0 3.35 0 1.7 0 0 Z " fill="#B88A1D" transform="translate(161,318)"/>
<path d="M0 0 C-0.33 0.99 -0.66 1.98 -1 3 C-1.99 3 -2.98 3 -4 3 C-4 3.66 -4 4.32 -4 5 C-4.66 5 -5.32 5 -6 5 C-6 5.66 -6 6.32 -6 7 C-7.4117783 7.53394179 -8.82970244 8.05165104 -10.25 8.5625 C-11.03890625 8.85253906 -11.8278125 9.14257812 -12.640625 9.44140625 C-15.19103452 10.04522837 -16.55322229 9.8473932 -19 9 C-15.27034861 6.96564469 -13.33094958 6 -9 6 C-8.67 5.01 -8.34 4.02 -8 3 C-2.77777778 0 -2.77777778 0 0 0 Z " fill="#A4873A" transform="translate(224,262)"/>
<path d="M0 0 C1 3 1 3 0.37915039 4.80932617 C0.03875732 5.46392822 -0.30163574 6.11853027 -0.65234375 6.79296875 C-1.01650391 7.50517578 -1.38066406 8.21738281 -1.75585938 8.95117188 C-2.14580078 9.68916016 -2.53574219 10.42714844 -2.9375 11.1875 C-3.51661133 12.31188477 -3.51661133 12.31188477 -4.10742188 13.45898438 C-5.06271757 15.31060689 -6.03021577 17.15592452 -7 19 C-8.41687119 14.74938644 -7.19320039 12.28148375 -6 8 C-4.68 7.67 -3.36 7.34 -2 7 C-2.04125 6.21625 -2.0825 5.4325 -2.125 4.625 C-2 2 -2 2 0 0 Z " fill="#A78836" transform="translate(289,227)"/>
<path d="M0 0 C3.96 0 7.92 0 12 0 C11 4 11 4 9 6 C9 5.01 9 4.02 9 3 C6.36 2.67 3.72 2.34 1 2 C1.04125 3.11375 1.0825 4.2275 1.125 5.375 C1 9 1 9 -1 11 C-0.67 7.37 -0.34 3.74 0 0 Z " fill="#B88D2B" transform="translate(320,315)"/>
<path d="M0 0 C1.66666667 1.66666667 3.33333333 3.33333333 5 5 C5.763125 5.70125 6.52625 6.4025 7.3125 7.125 C9 9 9 9 9 12 C8.01 11.67 7.02 11.34 6 11 C6 10.01 6 9.02 6 8 C4.68 8 3.36 8 2 8 C-0.25 6 -0.25 6 -2 4 C-1.34 2.68 -0.68 1.36 0 0 Z " fill="#6B7872" transform="translate(239,75)"/>
<path d="M0 0 C5.50808397 0.59015185 10.64878069 1.56663769 16 3 C14.3125 4.125 14.3125 4.125 12 5 C9.25 4.125 9.25 4.125 7 3 C8.98 5.97 8.98 5.97 11 9 C8.03469503 7.64199529 5.70868729 6.07571737 3.25 3.9375 C2.63640625 3.41027344 2.0228125 2.88304688 1.390625 2.33984375 C0.93171875 1.89769531 0.4728125 1.45554687 0 1 C0 0.67 0 0.34 0 0 Z " fill="#9C8641" transform="translate(213,76)"/>
<path d="M0 0 C0.33 0 0.66 0 1 0 C1 1.65 1 3.3 1 5 C3.64 5 6.28 5 9 5 C9 3.35 9 1.7 9 0 C9.33 0.66 9.66 1.32 10 2 C11.65 1.34 13.3 0.68 15 0 C14.67 0.99 14.34 1.98 14 3 C12.68 3 11.36 3 10 3 C10 3.66 10 4.32 10 5 C12.64 5 15.28 5 18 5 C18 5.33 18 5.66 18 6 C11.4 6 4.8 6 -2 6 C-1.34 4.02 -0.68 2.04 0 0 Z " fill="#BA8A1A" transform="translate(290,332)"/>
<path d="M0 0 C0.99 0.33 1.98 0.66 3 1 C3.75 2.9375 3.75 2.9375 4 5 C3.67 5.66 3.34 6.32 3 7 C4.65 7.33 6.3 7.66 8 8 C8 8.33 8 8.66 8 9 C5.03 9 2.06 9 -1 9 C-1.33 6.69 -1.66 4.38 -2 2 C-1.34 2 -0.68 2 0 2 C0 1.34 0 0.68 0 0 Z " fill="#C58901" transform="translate(46,328)"/>
<path d="M0 0 C3.39417765 3.12621626 5.6062718 5.56541027 7 10 C6.34 10 5.68 10 5 10 C4.67 11.32 4.34 12.64 4 14 C3.01 13.01 2.02 12.02 1 11 C1.99 9.68 2.98 8.36 4 7 C2.68 6.67 1.36 6.34 0 6 C0 4.02 0 2.04 0 0 Z " fill="#B1872D" transform="translate(281,111)"/>
<path d="M0 0 C-0.165 0.825 -0.33 1.65 -0.5 2.5 C0.27294847 7.91063926 4.02145679 10.50101334 8 14 C7.67 14.66 7.34 15.32 7 16 C6.4225 15.38125 5.845 14.7625 5.25 14.125 C3.19049456 11.94240783 3.19049456 11.94240783 0.875 11.0625 C-1.78771495 9.55362819 -2.1591351 7.87295507 -3 5 C-3 4.01 -3 3.02 -3 2 C-3.99 1.67 -4.98 1.34 -6 1 C-3 0 -3 0 0 0 Z " fill="#9B8643" transform="translate(140,80)"/>
<path d="M0 0 C1.32 0 2.64 0 4 0 C4 0.66 4 1.32 4 2 C5.32 2 6.64 2 8 2 C8 2.66 8 3.32 8 4 C8.99 4.33 9.98 4.66 11 5 C10.67 5.99 10.34 6.98 10 8 C8.35 8 6.7 8 5 8 C5 6.35 5 4.7 5 3 C3.35 3 1.7 3 0 3 C0 2.01 0 1.02 0 0 Z " fill="#C88805" transform="translate(16,315)"/>
<path d="M0 0 C0 3.61029169 -0.96092582 6.55806676 -2 10 C-2.66 10 -3.32 10 -4 10 C-4.66 11.98 -5.32 13.96 -6 16 C-6.99 16 -7.98 16 -9 16 C-9.33 16.99 -9.66 17.98 -10 19 C-10.33 18.34 -10.66 17.68 -11 17 C-10.01 15.515 -10.01 15.515 -9 14 C-8.34 14 -7.68 14 -7 14 C-6.773125 13.175 -6.54625 12.35 -6.3125 11.5 C-4.72573768 7.26863382 -2.49251763 3.74828987 0 0 Z " fill="#A0883C" transform="translate(261,218)"/>
<path d="M0 0 C0.99 0.495 0.99 0.495 2 1 C2 2.65 2 4.3 2 6 C2.66 6 3.32 6 4 6 C4.66 8.31 5.32 10.62 6 13 C6.66 13 7.32 13 8 13 C8 14.65 8 16.3 8 18 C8.66 18 9.32 18 10 18 C10.33 19.32 10.66 20.64 11 22 C5.15992613 18.30086427 2.08742654 11.20939304 0.39453125 4.65625 C0.125 2.75 0.125 2.75 0 0 Z " fill="#7D7A5A" transform="translate(59,197)"/>
<path d="M0 0 C2.475 0.99 2.475 0.99 5 2 C5.02683987 4.97922593 5.04676037 7.95821295 5.0625 10.9375 C5.07087891 11.78763672 5.07925781 12.63777344 5.08789062 13.51367188 C5.09111328 14.32255859 5.09433594 15.13144531 5.09765625 15.96484375 C5.10289307 16.7137085 5.10812988 17.46257324 5.11352539 18.23413086 C5 20 5 20 4 21 C2.33382885 21.04063832 0.66611905 21.042721 -1 21 C-0.67 20.34 -0.34 19.68 0 19 C0.99 19 1.98 19 3 19 C3.33 14.38 3.66 9.76 4 5 C3.01 5 2.02 5 1 5 C0.67 3.35 0.34 1.7 0 0 Z " fill="#827B55" transform="translate(251,183)"/>
<path d="M0 0 C0.66 0 1.32 0 2 0 C1.34 3.96 0.68 7.92 0 12 C-3.96 12 -7.92 12 -12 12 C-11.34 10.35 -10.68 8.7 -10 7 C-9.67 8.32 -9.34 9.64 -9 11 C-6.69 11 -4.38 11 -2 11 C-1.855625 9.9275 -1.71125 8.855 -1.5625 7.75 C-1.16250558 5.08337051 -0.72408076 2.58600271 0 0 Z " fill="#B78A21" transform="translate(131,326)"/>
<path d="M0 0 C0.99 0.495 0.99 0.495 2 1 C2.46806645 3.33744294 2.82669794 5.69739079 3.125 8.0625 C3.29257812 9.35285156 3.46015625 10.64320313 3.6328125 11.97265625 C3.75398438 12.97167969 3.87515625 13.97070312 4 15 C5.98 15 7.96 15 10 15 C9.01 16.485 9.01 16.485 8 18 C6.35 17.67 4.7 17.34 3 17 C2.49622232 14.73000175 1.99709981 12.45896997 1.5 10.1875 C1.08234375 8.29064453 1.08234375 8.29064453 0.65625 6.35546875 C0 3 0 3 0 0 Z " fill="#B38B25" transform="translate(266,320)"/>
<path d="M0 0 C7.43209041 2.07407174 11.34277307 6.14520044 16 12 C15.67 12.66 15.34 13.32 15 14 C14.01 13.34 13.02 12.68 12 12 C12 11.34 12 10.68 12 10 C11.01 9.67 10.02 9.34 9 9 C9 8.01 9 7.02 9 6 C7.02 5.34 5.04 4.68 3 4 C3 3.34 3 2.68 3 2 C2.01 2 1.02 2 0 2 C0 1.34 0 0.68 0 0 Z " fill="#978345" transform="translate(168,130)"/>
<path d="M0 0 C1.89879606 3.29124651 2.69675394 6.20942419 3 10 C2.0625 13.375 2.0625 13.375 1 16 C-1.40034102 12.39948847 -3.32187705 9.03855465 -2.625 4.625 C-2.41875 4.08875 -2.2125 3.5525 -2 3 C-1.34 4.32 -0.68 5.64 0 7 C-0.185625 6.401875 -0.37125 5.80375 -0.5625 5.1875 C-1 3 -1 3 0 0 Z " fill="#616B65" transform="translate(13,226)"/>
<path d="M0 0 C2.85276981 2.43013725 2.98452213 2.84006198 3.375 6.875 C3.2295535 11.0317078 1.98600625 14.01399375 -1 17 C-2.66617115 17.04063832 -4.33388095 17.042721 -6 17 C-4 15.66666667 -2 14.33333333 0 13 C0.36530232 9.87442041 0.36530232 9.87442041 0.1875 6.375 C0.16042969 5.18648438 0.13335937 3.99796875 0.10546875 2.7734375 C0.07066406 1.85820313 0.03585938 0.94296875 0 0 Z " fill="#A88B31" transform="translate(246,116)"/>
<path d="M0 0 C1.32 0.33 2.64 0.66 4 1 C2.71792641 3.86001033 1.50848764 6.07039412 -1 8 C-2.32 8 -3.64 8 -5 8 C-3.62845496 5.04590299 -2.01136276 2.55991624 0 0 Z " fill="#6B7672" transform="translate(71,74)"/>
<path d="M0 0 C2.55687669 0.34552388 4.57501375 0.75087013 6.8125 2.0625 C8.73025102 5.19146219 8.41831773 8.47515877 8 12 C7 15 7 15 6 17 C5.67 17 5.34 17 5 17 C4.91840426 12.83861737 5.01751476 9.0527516 6 5 C5.34 4.67 4.68 4.34 4 4 C4 3.34 4 2.68 4 2 C2.68 2 1.36 2 0 2 C0 1.34 0 0.68 0 0 Z " fill="#B9901E" transform="translate(20,315)"/>
<path d="M0 0 C0.625 2.375 0.625 2.375 1 5 C0.34 5.66 -0.32 6.32 -1 7 C-3.125 6.625 -3.125 6.625 -5 6 C-4.01 6 -3.02 6 -2 6 C-2 4.35 -2 2.7 -2 1 C-5.26954202 1.56371414 -6.82575883 2.49962266 -9 5 C-6.96456769 -0.67013285 -5.87860125 -1.3923003 0 0 Z " fill="#B68D24" transform="translate(289,316)"/>
<path d="M0 0 C2.96052484 3.36423277 3.92289822 6.69159287 5 11 C3.02 11 1.04 11 -1 11 C-0.814375 10.38125 -0.62875 9.7625 -0.4375 9.125 C0.23686176 6.95839822 0.23686176 6.95839822 -1 5 C-0.72057545 3.32345271 -0.39171753 1.65391846 0 0 Z " fill="#AD882E" transform="translate(290,124)"/>
<path d="M0 0 C4.02992782 0.55312735 8.02022924 1.1558062 12 2 C12.33 3.65 12.66 5.3 13 7 C8.1725201 5.58707905 4.2837641 3.57025846 0 1 C0 0.67 0 0.34 0 0 Z " fill="#AE8633" transform="translate(96,288)"/>
<path d="M0 0 C4 4 8 8 12 12 C11.01 12.495 11.01 12.495 10 13 C9.01 12.67 8.02 12.34 7 12 C7 11.01 7 10.02 7 9 C6.401875 8.773125 5.80375 8.54625 5.1875 8.3125 C2.40651597 6.64390958 1.4358084 4.8716168 0 2 C0 1.34 0 0.68 0 0 Z " fill="#9E853F" transform="translate(73,224)"/>
<path d="M0 0 C0.495 0.268125 0.99 0.53625 1.5 0.8125 C4.9236946 2.43875493 8.44132285 3.69515171 12 5 C12 5.66 12 6.32 12 7 C13.32 7.33 14.64 7.66 16 8 C16 8.66 16 9.32 16 10 C9.69710616 8.26670419 3.68062123 5.52093184 0 0 Z " fill="#857D53" transform="translate(88,238)"/>
<path d="M0 0 C3.21852831 0.63065757 5.50801069 1.78020695 8.25 3.5625 C8.95640625 4.01753906 9.6628125 4.47257812 10.390625 4.94140625 C11.18726563 5.46541016 11.18726563 5.46541016 12 6 C11.01 6.495 11.01 6.495 10 7 C9.01 6.67 8.02 6.34 7 6 C7 5.34 7 4.68 7 4 C5.02 4.99 5.02 4.99 3 6 C0 2.25 0 2.25 0 0 Z " fill="#A5883C" transform="translate(252,90)"/>
<path d="M0 0 C-0.99 0.495 -0.99 0.495 -2 1 C-1.67 2.32 -1.34 3.64 -1 5 C-2.98 5 -4.96 5 -7 5 C-6.67 4.01 -6.34 3.02 -6 2 C-8.64 2.33 -11.28 2.66 -14 3 C-9.56270856 0.04180571 -5.24640913 -0.15430615 0 0 Z " fill="#626C67" transform="translate(125,11)"/>
<path d="M0 0 C0.66 0.33 1.32 0.66 2 1 C-3.75 5 -3.75 5 -6 5 C-6 5.66 -6 6.32 -6 7 C-9.96 8.98 -9.96 8.98 -14 11 C-14 10.34 -14 9.68 -14 9 C-10.53846154 6 -10.53846154 6 -8 6 C-8 5.34 -8 4.68 -8 4 C-6.71349294 3.30289269 -5.42059335 2.61757124 -4.125 1.9375 C-3.40570313 1.55464844 -2.68640625 1.17179688 -1.9453125 0.77734375 C-1.30335938 0.52082031 -0.66140625 0.26429688 0 0 Z " fill="#7F785C" transform="translate(214,198)"/>
<path d="M0 0 C1.485 0.99 1.485 0.99 3 2 C3.1875 4.625 3.1875 4.625 3 7 C3.99 7.33 4.98 7.66 6 8 C6.33 9.98 6.66 11.96 7 14 C3.6985981 11.19380839 1.94330317 7.81959588 0 4 C0 2.68 0 1.36 0 0 Z " fill="#A08837" transform="translate(84,164)"/>
<path d="M0 0 C5.1358421 1.87655769 7.84442256 3.32974539 11 8 C10.67 8.66 10.34 9.32 10 10 C8.32756598 8.71580959 6.66218553 7.42242815 5 6.125 C3.6078125 5.04605469 3.6078125 5.04605469 2.1875 3.9453125 C1.465625 3.30335938 0.74375 2.66140625 0 2 C0 1.34 0 0.68 0 0 Z " fill="#998540" transform="translate(229,134)"/>
<path d="M0 0 C-0.33 0.99 -0.66 1.98 -1 3 C-3.64 2.34 -6.28 1.68 -9 1 C-9.33 1.66 -9.66 2.32 -10 3 C-10 1.68 -10 0.36 -10 -1 C-5.92224809 -1.9267618 -3.57818963 -2.33958553 0 0 Z " fill="#5E6564" transform="translate(135,359)"/>
<path d="M0 0 C1.26072674 2.52145348 0.81937465 3.28101839 0.0625 5.9375 C-0.66198129 8.50437081 -1 10.28954275 -1 13 C-1.66 13 -2.32 13 -3 13 C-3 11.68 -3 10.36 -3 9 C-3.66 9 -4.32 9 -5 9 C-5 8.01 -5 7.02 -5 6 C-3.68 5.67 -2.36 5.34 -1 5 C-0.67 3.35 -0.34 1.7 0 0 Z " fill="#BC8A22" transform="translate(256,325)"/>
<path d="M0 0 C0.33 0 0.66 0 1 0 C1.5 3.125 1.5 3.125 1 7 C-1.36397597 9.4881117 -3.99408252 11.35217777 -7 13 C-7.66 13 -8.32 13 -9 13 C-9 11 -9 11 -7.6875 9.375 C-6 8 -6 8 -3 8 C-3 7.34 -3 6.68 -3 6 C-2.01 6 -1.02 6 0 6 C0 4.02 0 2.04 0 0 Z " fill="#7A785C" transform="translate(147,244)"/>
<path d="M0 0 C0.33 0 0.66 0 1 0 C1 1.98 1 3.96 1 6 C1.99 6 2.98 6 4 6 C4 5.34 4 4.68 4 4 C5.65 4 7.3 4 9 4 C4.69230769 7.93846154 4.69230769 7.93846154 1.1875 8.25 C0.465625 8.1675 -0.25625 8.085 -1 8 C-0.67 5.36 -0.34 2.72 0 0 Z " fill="#79785E" transform="translate(210,218)"/>
<path d="M0 0 C1.32 0.66 2.64 1.32 4 2 C4 3.32 4 4.64 4 6 C3.01 5.67 2.02 5.34 1 5 C1 5.66 1 6.32 1 7 C0.34 6.67 -0.32 6.34 -1 6 C-1.042721 4.33388095 -1.04063832 2.66617115 -1 1 C-0.67 0.67 -0.34 0.34 0 0 Z " fill="#6D7670" transform="translate(209,361)"/>
<path d="M0 0 C0.99 0 1.98 0 3 0 C3.19477739 1.62414378 3.38059458 3.24936423 3.5625 4.875 C3.66691406 5.77992188 3.77132813 6.68484375 3.87890625 7.6171875 C4 10 4 10 3 12 C2.34 12 1.68 12 1 12 C1.01740234 11.07767578 1.01740234 11.07767578 1.03515625 10.13671875 C1.04417969 9.32847656 1.05320313 8.52023438 1.0625 7.6875 C1.07410156 6.88699219 1.08570313 6.08648437 1.09765625 5.26171875 C1.09657855 2.83138666 1.09657855 2.83138666 0 0 Z " fill="#6E7873" transform="translate(2,185)"/>
<path d="M0 0 C1.98 0 3.96 0 6 0 C6 0.66 6 1.32 6 2 C5.01 2 4.02 2 3 2 C3 2.66 3 3.32 3 4 C4.32 4.33 5.64 4.66 7 5 C3.04 4.67 -0.92 4.34 -5 4 C-3.68 3.34 -2.36 2.68 -1 2 C-0.67 1.34 -0.34 0.68 0 0 Z " fill="#676D6B" transform="translate(233,45)"/>
<path d="M0 0 C-0.33 0.99 -0.66 1.98 -1 3 C-5.455 3.495 -5.455 3.495 -10 4 C-10 3.34 -10 2.68 -10 2 C-6.5980513 -0.09350689 -3.94727588 -0.17942163 0 0 Z " fill="#6F7875" transform="translate(239,38)"/>
<path d="M0 0 C2.35171131 0.59861742 4.6859378 1.26924352 7 2 C7.33 2.66 7.66 3.32 8 4 C6.35 3.67 4.7 3.34 3 3 C3 3.99 3 4.98 3 6 C0.03 5.505 0.03 5.505 -3 5 C-3 4.34 -3 3.68 -3 3 C-1.68 3 -0.36 3 1 3 C0.67 2.01 0.34 1.02 0 0 Z " fill="#8B7E4E" transform="translate(93,264)"/>
<path d="M0 0 C3.48330216 0.64505596 6.09432866 1.98217268 9 4 C9 4.66 9 5.32 9 6 C5.21213403 5.4739075 2.82847776 4.61896089 0 2 C0 1.34 0 0.68 0 0 Z " fill="#757765" transform="translate(85,261)"/>
<path d="M0 0 C0.66 0 1.32 0 2 0 C3.42258812 3.82320557 4.24042276 6.91281305 4 11 C3.01 10.67 2.02 10.34 1 10 C0.67 6.7 0.34 3.4 0 0 Z " fill="#757865" transform="translate(261,112)"/>
<path d="M0 0 C0 2.62113708 -0.31292445 4.50935112 -1 7 C-0.01 7.33 0.98 7.66 2 8 C3.6875 11.0625 3.6875 11.0625 5 14 C3.0625 13.1875 3.0625 13.1875 1 12 C0.67 11.01 0.34 10.02 0 9 C-0.66 9 -1.32 9 -2 9 C-2.125 5.625 -2.125 5.625 -2 2 C-1.34 1.34 -0.68 0.68 0 0 Z " fill="#847D52" transform="translate(143,107)"/>
<path d="M0 0 C0.93423645 3.01031744 1.04449911 3.86650268 0 7 C3.3 6.67 6.6 6.34 10 6 C10 6.66 10 7.32 10 8 C5.71 8 1.42 8 -3 8 C-2.34 6.35 -1.68 4.7 -1 3 C-0.67 2.01 -0.34 1.02 0 0 Z " fill="#BB8C27" transform="translate(70,330)"/>
<path d="M0 0 C3.96 0 7.92 0 12 0 C12 0.33 12 0.66 12 1 C7.545 1.495 7.545 1.495 3 2 C3 3.65 3 5.3 3 7 C1.68 5.68 0.36 4.36 -1 3 C-0.67 2.01 -0.34 1.02 0 0 Z " fill="#B48F38" transform="translate(36,315)"/>
<path d="M0 0 C7.20454545 9.00568182 7.20454545 9.00568182 6.75 13.4375 C6.5025 13.953125 6.255 14.46875 6 15 C3.5244152 12.5244152 3.07771836 10.30051247 2 7 C1.34 6.01 0.68 5.02 0 4 C0 2.68 0 1.36 0 0 Z " fill="#867D55" transform="translate(107,201)"/>
<path d="M0 0 C0.99 1.32 1.98 2.64 3 4 C3.66 3.67 4.32 3.34 5 3 C4.67 5.97 4.34 8.94 4 12 C2 10 2 10 1 7 C0.67 7 0.34 7 0 7 C0 4.69 0 2.38 0 0 Z " fill="#616A67" transform="translate(2,142)"/>
<path d="M0 0 C0 0.99 0 1.98 0 3 C1.65 3 3.3 3 5 3 C4.67 4.98 4.34 6.96 4 9 C3.67 9 3.34 9 3 9 C3 7.35 3 5.7 3 4 C1.02 4.99 1.02 4.99 -1 6 C-1.33 5.01 -1.66 4.02 -2 3 C-2.99 2.34 -3.98 1.68 -5 1 C-3 0 -3 0 0 0 Z " fill="#B78C20" transform="translate(16,315)"/>
<path d="M0 0 C0.99 0.33 1.98 0.66 3 1 C1.50902342 4.7952131 -0.75700849 6.61042731 -4 9 C-3.67 7.35 -3.34 5.7 -3 4 C-2.01 4 -1.02 4 0 4 C0 2.68 0 1.36 0 0 Z " fill="#AE8533" transform="translate(268,259)"/>
<path d="M0 0 C1.24546405 2.49092811 0.7767578 3.41080733 0 6 C3.465 5.505 3.465 5.505 7 5 C6.67 5.99 6.34 6.98 6 8 C3.69 8 1.38 8 -1 8 C-1.04241723 5.66705225 -1.04092937 3.33297433 -1 1 C-0.67 0.67 -0.34 0.34 0 0 Z " fill="#9A8540" transform="translate(209,220)"/>
<path d="M0 0 C0.99 0 1.98 0 3 0 C1.55049545 3.7910119 -0.15172566 7.3874638 -2 11 C-3 9 -3 9 -2.44140625 6.8359375 C-2.15136719 6.02382812 -1.86132812 5.21171875 -1.5625 4.375 C-1.27503906 3.55773437 -0.98757812 2.74046875 -0.69140625 1.8984375 C-0.46324219 1.27195313 -0.23507813 0.64546875 0 0 Z " fill="#A1873C" transform="translate(253,219)"/>
<path d="M0 0 C2.9719385 1.12451727 5.33440687 2.22293791 8 4 C8 5.32 8 6.64 8 8 C7.34 7.67 6.68 7.34 6 7 C6.33 6.34 6.66 5.68 7 5 C5.576875 4.8453125 5.576875 4.8453125 4.125 4.6875 C1 4 1 4 -1 1 C-0.67 0.67 -0.34 0.34 0 0 Z " fill="#6A716B" transform="translate(204,71)"/>
<path d="M0 0 C0.66 0 1.32 0 2 0 C1.67 1.65 1.34 3.3 1 5 C-2.3 5 -5.6 5 -9 5 C-9 4.67 -9 4.34 -9 4 C-7.88625 3.71125 -6.7725 3.4225 -5.625 3.125 C-1.99708908 2.30758671 -1.99708908 2.30758671 0 0 Z " fill="#6D7773" transform="translate(201,363)"/>
<path d="M0 0 C1.0625 1.8125 1.0625 1.8125 2 4 C1.67 4.99 1.34 5.98 1 7 C-1.0625 7.6875 -1.0625 7.6875 -3 8 C-2.74438677 5.6568787 -2.40729228 3.32156597 -2 1 C-1.34 0.67 -0.68 0.34 0 0 Z " fill="#CB8D08" transform="translate(101,321)"/>
<path d="M0 0 C1.65 0 3.3 0 5 0 C4.67 2.31 4.34 4.62 4 7 C2.68 7.33 1.36 7.66 0 8 C0 7.01 0 6.02 0 5 C0.66 5 1.32 5 2 5 C2.33 3.68 2.66 2.36 3 1 C2.01 0.67 1.02 0.34 0 0 Z " fill="#BD8D20" transform="translate(309,316)"/>
<path d="M0 0 C1.32 0.33 2.64 0.66 4 1 C1.69 3.31 -0.62 5.62 -3 8 C-3.66 7.01 -4.32 6.02 -5 5 C-4.01 4.67 -3.02 4.34 -2 4 C-0.79117904 1.99983534 -0.79117904 1.99983534 0 0 Z " fill="#AB863A" transform="translate(260,268)"/>
<path d="M0 0 C1.32 0.66 2.64 1.32 4 2 C-0.55426184 4.66590937 -3.73946963 5.31563182 -9 5 C-9 4.67 -9 4.34 -9 4 C-4.545 3.505 -4.545 3.505 0 3 C0 2.01 0 1.02 0 0 Z " fill="#B88E26" transform="translate(18,334)"/>
<path d="M0 0 C0.66 0.33 1.32 0.66 2 1 C2 2.32 2 3.64 2 5 C0.35 5.66 -1.3 6.32 -3 7 C-3.33 6.01 -3.66 5.02 -4 4 C-2.68 2.68 -1.36 1.36 0 0 Z " fill="#C78801" transform="translate(13,317)"/>
<path d="M0 0 C1.9375 0.6875 1.9375 0.6875 4 2 C5.09809194 5.29427581 5.11196276 6.66411172 4 10 C3.32845067 8.71086513 2.66291141 7.41859796 2 6.125 C1.62875 5.40570313 1.2575 4.68640625 0.875 3.9453125 C0 2 0 2 0 0 Z " fill="#A58840" transform="translate(64,248)"/>
<path d="M0 0 C0.66 0.33 1.32 0.66 2 1 C1.67 1.99 1.34 2.98 1 4 C1.66 4 2.32 4 3 4 C2.67 5.65 2.34 7.3 2 9 C-1 7 -1 7 -1.6875 4.875 C-1.790625 4.25625 -1.89375 3.6375 -2 3 C-1.34 3 -0.68 3 0 3 C0 2.01 0 1.02 0 0 Z " fill="#5E6963" transform="translate(171,353)"/>
<path d="M0 0 C0.99 0.33 1.98 0.66 3 1 C2.34 2.32 1.68 3.64 1 5 C0.01 5 -0.98 5 -2 5 C-1.67 4.34 -1.34 3.68 -1 3 C-1.66 3 -2.32 3 -3 3 C-2 1 -2 1 0 0 Z " fill="#C38902" transform="translate(210,331)"/>
<path d="M0 0 C1.65 0.33 3.3 0.66 5 1 C4.67 2.98 4.34 4.96 4 7 C3.67 7 3.34 7 3 7 C3 5.35 3 3.7 3 2 C1.35 2.66 -0.3 3.32 -2 4 C-1.34 2.68 -0.68 1.36 0 0 Z " fill="#B38C2B" transform="translate(332,329)"/>
<path d="M0 0 C0.33 0.66 0.66 1.32 1 2 C1.99 2 2.98 2 4 2 C2.25 6.875 2.25 6.875 0 8 C-0.38063221 5.6739143 -0.71269945 3.33944736 -1 1 C-0.67 0.67 -0.34 0.34 0 0 Z " fill="#AE8931" transform="translate(273,250)"/>
<path d="M0 0 C-0.6875 1.9375 -0.6875 1.9375 -2 4 C-4.625 4.75 -4.625 4.75 -7 5 C-7 4.34 -7 3.68 -7 3 C-4.4385343 0.70351351 -3.52032428 0 0 0 Z " fill="#717968" transform="translate(235,251)"/>
<path d="M0 0 C-2 2 -2 2 -5.625 2.125 C-6.73875 2.08375 -7.8525 2.0425 -9 2 C-9.33 1.34 -9.66 0.68 -10 0 C-6.33694766 -0.74926071 -3.57644848 -1.2380014 0 0 Z " fill="#A78D2A" transform="translate(244,204)"/>
<path d="M0 0 C0 0.33 0 0.66 0 1 C-1.98 1 -3.96 1 -6 1 C-6 1.66 -6 2.32 -6 3 C-8.64 3 -11.28 3 -14 3 C-8.75250397 0.37625198 -5.91152367 -0.09534716 0 0 Z " fill="#827C55" transform="translate(74,158)"/>
<path d="M0 0 C4.10899581 1.12795963 8.07561214 2.33510818 12 4 C12 4.33 12 4.66 12 5 C10.02 5 8.04 5 6 5 C6 4.34 6 3.68 6 3 C4.35 3 2.7 3 1 3 C0.67 2.01 0.34 1.02 0 0 Z " fill="#A88A34" transform="translate(156,126)"/>
<path d="M0 0 C0.99 0 1.98 0 3 0 C1.8141763 3.37503669 0.72426311 5.64722731 -2 8 C-2.33 7.34 -2.66 6.68 -3 6 C-2.06553465 3.96855359 -1.06775224 1.96466413 0 0 Z " fill="#A98536" transform="translate(58,125)"/>
<path d="M0 0 C0.33 0 0.66 0 1 0 C1.05399736 1.45792884 1.09279177 2.91642712 1.125 4.375 C1.14820313 5.18710938 1.17140625 5.99921875 1.1953125 6.8359375 C1 9 1 9 -1 11 C-3.625 11.125 -3.625 11.125 -6 11 C-5.01 10.67 -4.02 10.34 -3 10 C-3 9.34 -3 8.68 -3 8 C-2.01 8 -1.02 8 0 8 C0 5.36 0 2.72 0 0 Z " fill="#8C7D4B" transform="translate(246,120)"/>
<path d="M0 0 C4.875 4.75 4.875 4.75 6 7 C3.03 6.505 3.03 6.505 0 6 C0 4.02 0 2.04 0 0 Z " fill="#A88636" transform="translate(281,111)"/>
<path d="M0 0 C1.98 0.66 3.96 1.32 6 2 C6 2.66 6 3.32 6 4 C3 5 3 5 0 4 C0 2.68 0 1.36 0 0 Z " fill="#6E7673" transform="translate(186,46)"/>
<path d="M0 0 C1.32 0.66 2.64 1.32 4 2 C3.34 3.32 2.68 4.64 2 6 C1.67 5.34 1.34 4.68 1 4 C0.01 4.33 -0.98 4.66 -2 5 C-1.34 3.35 -0.68 1.7 0 0 Z " fill="#B88916" transform="translate(279,321)"/>
<path d="M0 0 C1.98 0 3.96 0 6 0 C5.01 0.495 5.01 0.495 4 1 C4 1.66 4 2.32 4 3 C1.03 3 -1.94 3 -5 3 C-5 2.67 -5 2.34 -5 2 C-3.35 2 -1.7 2 0 2 C0 1.34 0 0.68 0 0 Z " fill="#A88735" transform="translate(176,273)"/>
<path d="M0 0 C0.99 0 1.98 0 3 0 C5 3 5 3 5 6 C3.68 5.67 2.36 5.34 1 5 C0.67 3.35 0.34 1.7 0 0 Z " fill="#6B766F" transform="translate(47,221)"/>
<path d="M0 0 C0.33 0.99 0.66 1.98 1 3 C0.01 3.33 -0.98 3.66 -2 4 C-2.6837045 5.32467746 -3.34964186 6.65863633 -4 8 C-4.99 8.66 -5.98 9.32 -7 10 C-5.33248852 6.05860922 -2.77289351 3.2107188 0 0 Z " fill="#978344" transform="translate(235,168)"/>
<path d="M0 0 C0.66 0.33 1.32 0.66 2 1 C1.67 1.33 1.34 1.66 1 2 C1.66 2.33 2.32 2.66 3 3 C2.67 3.99 2.34 4.98 2 6 C1.01 6.33 0.02 6.66 -1 7 C-1 5.68 -1 4.36 -1 3 C-1.66 2.67 -2.32 2.34 -3 2 C-2.01 1.34 -1.02 0.68 0 0 Z " fill="#66706C" transform="translate(77,27)"/>
<path d="M0 0 C0.66 0 1.32 0 2 0 C1.67 1.98 1.34 3.96 1 6 C-0.65 6 -2.3 6 -4 6 C-4 5.34 -4 4.68 -4 4 C-3.01 4 -2.02 4 -1 4 C-0.67 2.68 -0.34 1.36 0 0 Z " fill="#C58805" transform="translate(142,331)"/>
<path d="M0 0 C0.66 0 1.32 0 2 0 C0.7508258 3.45925163 -0.67527795 6.14693203 -3 9 C-3 7.02 -3 5.04 -3 3 C-2.01 3 -1.02 3 0 3 C0 2.01 0 1.02 0 0 Z " fill="#B98B20" transform="translate(109,327)"/>
<path d="M0 0 C0.33 0.66 0.66 1.32 1 2 C1.66 2 2.32 2 3 2 C2.67 4.31 2.34 6.62 2 9 C0 7 0 7 -0.125 3.375 C-0.08375 2.26125 -0.0425 1.1475 0 0 Z " fill="#BC881E" transform="translate(10,325)"/>
<path d="M0 0 C0.33 0.66 0.66 1.32 1 2 C1.99 2.33 2.98 2.66 4 3 C3.01 3.33 2.02 3.66 1 4 C1 4.66 1 5.32 1 6 C0.34 5.67 -0.32 5.34 -1 5 C-0.67 4.34 -0.34 3.68 0 3 C-1.32 3.33 -2.64 3.66 -4 4 C-2.68 2.68 -1.36 1.36 0 0 Z " fill="#7E7B54" transform="translate(227,254)"/>
<path d="M0 0 C0.99 0.495 0.99 0.495 2 1 C2 2.98 2 4.96 2 7 C2.99 7.33 3.98 7.66 5 8 C4.67 9.32 4.34 10.64 4 12 C0.46209597 8.30827405 0.40884117 4.90609405 0 0 Z " fill="#A1883B" transform="translate(115,217)"/>
<path d="M0 0 C0.33 0.99 0.66 1.98 1 3 C1.66 3.33 2.32 3.66 3 4 C1.515 6.475 1.515 6.475 0 9 C-1.125 7.3125 -1.125 7.3125 -2 5 C-1.125 2.25 -1.125 2.25 0 0 Z " fill="#837A52" transform="translate(255,221)"/>
<path d="M0 0 C1.65 0 3.3 0 5 0 C5.33 1.32 5.66 2.64 6 4 C4.35 3.67 2.7 3.34 1 3 C0.67 2.01 0.34 1.02 0 0 Z " fill="#6E7873" transform="translate(199,51)"/>
<path d="M0 0 C-0.33 0.99 -0.66 1.98 -1 3 C-3.31 2.67 -5.62 2.34 -8 2 C-4.91190305 0.23537317 -3.76687864 0 0 0 Z M-10 2 C-9.34 2 -8.68 2 -8 2 C-8.33 2.66 -8.66 3.32 -9 4 C-9.33 3.34 -9.66 2.68 -10 2 Z " fill="#6F7A74" transform="translate(119,13)"/>
<path d="M0 0 C1.65 0 3.3 0 5 0 C5 1.65 5 3.3 5 5 C2 4 2 4 0.8125 1.9375 C0.544375 1.298125 0.27625 0.65875 0 0 Z " fill="#C58805" transform="translate(114,317)"/>
<path d="M0 0 C0.639375 0.2475 1.27875 0.495 1.9375 0.75 C2.2675 1.74 2.5975 2.73 2.9375 3.75 C1.6175 3.75 0.2975 3.75 -1.0625 3.75 C-1.0625 3.09 -1.0625 2.43 -1.0625 1.75 C-2.0525 1.42 -3.0425 1.09 -4.0625 0.75 C-2.0625 -0.25 -2.0625 -0.25 0 0 Z " fill="#7E7C59" transform="translate(212.0625,264.25)"/>
<path d="M0 0 C-0.33 0.99 -0.66 1.98 -1 3 C-2.84765625 3.73046875 -2.84765625 3.73046875 -5.0625 4.1875 C-5.79597656 4.34605469 -6.52945313 4.50460937 -7.28515625 4.66796875 C-8.13400391 4.83232422 -8.13400391 4.83232422 -9 5 C-6.45523312 2.20075644 -3.92372883 0 0 0 Z " fill="#978341" transform="translate(224,262)"/>
<path d="M0 0 C-3.20380017 2.13586678 -4.01939967 2.23132175 -7.6875 2.125 C-8.89986328 2.09792969 -8.89986328 2.09792969 -10.13671875 2.0703125 C-11.05904297 2.03550781 -11.05904297 2.03550781 -12 2 C-12 1.67 -12 1.34 -12 1 C-3.96428571 -1.27678571 -3.96428571 -1.27678571 0 0 Z " fill="#8D7F49" transform="translate(140,258)"/>
<path d="M0 0 C1.65 1.32 3.3 2.64 5 4 C4.67 4.66 4.34 5.32 4 6 C3.34 5.34 2.68 4.68 2 4 C1.01 4.66 0.02 5.32 -1 6 C-0.67 4.02 -0.34 2.04 0 0 Z " fill="#747B62" transform="translate(237,104)"/>
<path d="M0 0 C-0.33 1.32 -0.66 2.64 -1 4 C-3.86724686 3.42655063 -4.8614515 3.1385485 -7 1 C-4.50935112 0.31292445 -2.62113708 0 0 0 Z " fill="#616B66" transform="translate(134,42)"/>
</svg>
